<svg width="124" height="125" viewBox="0 0 124 125" fill="none" xmlns="http://www.w3.org/2000/svg">
<path d="M0 62.4792C0.0275431 46.0497 6.56632 30.3011 18.1837 18.6837C29.8011 7.06632 45.5497 0.527543 61.9792 0.5C78.4086 0.527543 94.1572 7.06632 105.775 18.6837C117.392 30.3011 123.931 46.0497 123.958 62.4792C123.931 78.9086 117.392 94.6572 105.775 106.275C94.1572 117.892 78.4086 124.431 61.9792 124.458C45.5497 124.431 29.8011 117.892 18.1837 106.275C6.56632 94.6572 0.0275431 78.9086 0 62.4792ZM61.9792 119.302C74.7467 119.314 87.1427 115.006 97.151 107.078L95.5854 103.689C95.1963 103.816 94.7893 103.881 94.3797 103.881C93.3569 103.881 92.3762 103.474 91.653 102.751C90.9298 102.028 90.5233 101.047 90.5229 100.024C90.5235 99.3631 90.6942 98.7132 91.0186 98.1371C91.3429 97.561 91.81 97.078 92.375 96.7346L88.6479 88.6617C88.0102 88.8677 87.3441 88.9726 86.674 88.9726C85.3781 88.9727 84.1125 88.5814 83.0428 87.85C81.9731 87.1186 81.1492 86.0812 80.6792 84.8736L67.8979 88.1418C67.8979 88.1616 67.8979 88.1819 67.8979 88.2027C67.8941 89.2246 67.4849 90.2033 66.7603 90.9239C66.0357 91.6445 65.0548 92.0482 64.0328 92.0464C63.0102 92.046 62.0296 91.6395 61.3067 90.9162C60.5837 90.193 60.1776 89.2122 60.1776 88.1896C60.1774 87.8844 60.2133 87.5802 60.2845 87.2834L42.347 79.5698C41.783 80.5489 40.9709 81.3619 39.9925 81.927C39.0141 82.4921 37.904 82.7893 36.7741 82.7886C36.4298 82.7886 36.086 82.7611 35.746 82.7064L31.8824 96.0866C32.5047 96.4138 33.0257 96.9048 33.3892 97.5066C33.7527 98.1084 33.9449 98.7981 33.9449 99.5012C33.9448 100.365 33.655 101.204 33.1218 101.883C32.5887 102.563 31.8432 103.044 31.0043 103.25L31.2741 110.27C40.4231 116.179 51.0879 119.316 61.9792 119.302ZM29.6927 109.219L29.4657 103.318C28.5632 103.169 27.7427 102.705 27.1508 102.007C26.5589 101.31 26.2339 100.425 26.234 99.5104C26.234 98.4878 26.6401 97.5071 27.363 96.7838C28.086 96.0606 29.0666 95.6541 30.0892 95.6537C30.1988 95.6537 30.303 95.658 30.4017 95.6667L34.2652 82.2865C33.1031 81.7929 32.1119 80.9681 31.4152 79.9151C30.7185 78.862 30.3472 77.6272 30.3475 76.3646L6.21208 73.4401C9.09435 87.9639 17.5134 100.798 29.6927 109.219ZM98.3906 106.077C104.235 101.188 109.044 95.1821 112.536 88.4104L92.7812 84.5302C92.3084 85.972 91.3422 87.2009 90.0526 88.0005L93.8354 96.1984C94.0169 96.1724 94.2 96.1591 94.3833 96.1589C95.4059 96.1589 96.3867 96.565 97.1099 97.2879C97.8332 98.0109 98.2397 98.9915 98.2401 100.014C98.2397 100.562 98.1221 101.104 97.8952 101.604C97.6683 102.103 97.3373 102.548 96.9245 102.909L98.3906 106.077ZM113.255 86.9781C116.927 79.3313 118.828 70.9555 118.818 62.4729C118.829 49.3536 114.279 36.6384 105.948 26.5042L98.1406 29.1656C98.2119 29.4624 98.2478 29.7666 98.2476 30.0719C98.2476 30.5784 98.1478 31.0799 97.954 31.5478C97.7602 32.0157 97.4761 32.4409 97.1179 32.799C96.7598 33.1572 96.3346 33.4412 95.8667 33.6351C95.3988 33.8289 94.8973 33.9286 94.3908 33.9286C93.6457 33.9287 92.9165 33.713 92.2914 33.3076C91.6662 32.9023 91.1718 32.3245 90.8679 31.6443L74.6387 37.1755C74.9484 38.2956 75.1049 39.4525 75.1042 40.6146C75.1064 42.7291 74.5865 44.8114 73.5907 46.6767C72.5949 48.542 71.154 50.1326 69.3958 51.3073L84.1458 76.6198C84.9449 76.2782 85.805 76.1025 86.674 76.1033C87.5184 76.1026 88.3547 76.2684 89.1351 76.5911C89.9155 76.9138 90.6246 77.3871 91.222 77.9839C91.8193 78.5808 92.2932 79.2896 92.6165 80.0697C92.9398 80.8498 93.1063 81.686 93.1063 82.5304C93.1063 82.6905 93.1002 82.8495 93.088 83.0074L113.255 86.9781ZM67.5677 86.6311L80.2969 83.3759C80.2609 83.0994 80.2428 82.8209 80.2426 82.542C80.2415 81.5449 80.4728 80.5612 80.9182 79.6691C81.3635 78.777 82.0107 78.0009 82.8082 77.4025L68.0582 52.0952C66.2558 53.0107 64.2622 53.4863 62.2405 53.4832C59.8347 53.4848 57.4772 52.8082 55.4384 51.5311L41.1311 71.6248C41.7876 72.2266 42.3116 72.9584 42.6698 73.7736C43.028 74.5889 43.2126 75.4698 43.2119 76.3603C43.212 76.9657 43.1268 77.5682 42.9586 78.1498L60.9482 85.879C61.3067 85.3969 61.7731 85.0054 62.3101 84.7358C62.847 84.4662 63.4396 84.326 64.0404 84.3264C64.7877 84.3259 65.5191 84.5424 66.1457 84.9497C66.7723 85.357 67.2671 85.9375 67.5701 86.6207L67.5677 86.6311ZM30.5417 74.8342C30.886 73.437 31.6888 72.1956 32.8219 71.3086C33.9549 70.4215 35.3527 69.94 36.7917 69.941C37.8739 69.9393 38.9388 70.2121 39.887 70.7337L54.1943 50.6452C52.6937 49.4418 51.4829 47.9163 50.6516 46.1818C49.8203 44.4472 49.3897 42.5478 49.3917 40.6243C49.3875 37.508 50.5196 34.4971 52.576 32.1556L33.4563 13.3431C24.8537 18.3414 17.7128 25.5089 12.7465 34.13C7.78022 42.751 5.16231 52.5241 5.15417 62.4733C5.15273 65.6143 5.41125 68.75 5.92708 71.8483L30.5417 74.8342ZM74.125 35.7248L90.5208 30.1311C90.5208 30.1124 90.5208 30.0938 90.5208 30.0752C90.5212 29.0524 90.9277 28.0717 91.6509 27.3485C92.3741 26.6253 93.3549 26.2188 94.3776 26.2184C94.9772 26.2179 95.5686 26.3574 96.1048 26.6258C96.641 26.8941 97.1072 27.284 97.4661 27.7642L104.867 25.2413C99.5433 19.0905 92.9586 14.1569 85.56 10.7753C78.1613 7.39363 70.1218 5.64306 61.987 5.64234C52.5054 5.62936 43.1733 8.00448 34.8516 12.5486L53.6536 31.0434C56.0105 28.9213 59.0708 27.7491 62.2422 27.7538C64.7903 27.7531 67.2812 28.5091 69.399 29.9259C71.5169 31.3428 73.1662 33.3566 74.138 35.7121L74.125 35.7248Z" fill="white"/>
</svg>
