<svg width="185" height="184" viewBox="0 0 185 184" fill="none" xmlns="http://www.w3.org/2000/svg">
<path d="M3.49346 183.273L91.5943 92.9655C91.8663 92.6969 92.0349 92.3412 92.0709 91.9606C92.1069 91.58 92.0079 91.1988 91.7912 90.8839C86.434 83.4043 76.5475 82.1074 72.8843 77.0814C62.0323 62.1943 59.2788 53.7675 54.6154 54.2895C54.2899 54.3363 53.9907 54.4942 53.7684 54.7365L21.9436 87.3615C3.63397 106.115 1.00245 147.451 0.527361 182.067C0.525816 182.411 0.627228 182.748 0.818859 183.034C1.01049 183.32 1.28349 183.543 1.60254 183.673C1.9216 183.802 2.27205 183.834 2.60905 183.762C2.94605 183.691 3.25415 183.521 3.49346 183.273Z" fill="#017CEE"/>
<path d="M183.798 181.042L93.4911 92.9353C93.2222 92.6626 92.8658 92.4934 92.4846 92.4574C92.1033 92.4214 91.7215 92.5209 91.4063 92.7384C83.9268 98.0988 82.6296 107.982 77.6037 111.645C62.7165 122.497 54.29 125.251 54.812 129.914C54.8595 130.238 55.0171 130.536 55.2587 130.758L87.8836 162.583C106.637 180.892 147.973 183.524 182.589 183.999C182.932 183.999 183.267 183.898 183.551 183.707C183.836 183.516 184.057 183.244 184.187 182.927C184.317 182.61 184.349 182.261 184.28 181.926C184.211 181.59 184.043 181.283 183.798 181.042Z" fill="#00AD46"/>
<path d="M87.8845 162.594C77.6325 152.592 72.8815 132.807 92.529 92.0088C60.5886 106.283 49.3957 125.046 54.8999 130.419L87.8845 162.594Z" fill="#04D659"/>
<path d="M181.567 0.740088L93.4693 91.0476C93.1968 91.316 93.0276 91.6718 92.9916 92.0526C92.9556 92.4333 93.0551 92.8146 93.2724 93.1293C98.6328 100.609 108.513 101.906 112.179 106.932C123.031 121.819 125.788 130.245 130.448 129.723C130.773 129.677 131.073 129.519 131.295 129.276L163.12 96.6517C181.429 77.8982 184.061 36.5624 184.536 1.94652C184.537 1.60213 184.435 1.26539 184.242 0.979505C184.05 0.693619 183.777 0.47159 183.458 0.34195C183.139 0.212309 182.789 0.180981 182.452 0.251906C182.115 0.322831 181.806 0.492845 181.567 0.740088Z" fill="#00C7D4"/>
<path d="M163.135 96.6535C153.133 106.905 133.348 111.656 92.5469 92.0088C106.821 123.949 125.584 135.142 130.957 129.638L163.135 96.6535Z" fill="#11E1EE"/>
<path d="M1.25845 2.96938L91.5658 91.067C91.8344 91.339 92.1906 91.5078 92.5711 91.5438C92.9517 91.5798 93.3326 91.4808 93.6475 91.2641C101.127 85.9037 102.424 76.0206 107.45 72.3574C122.337 61.5054 130.764 58.7516 130.242 54.0882C130.194 53.763 130.037 53.464 129.795 53.2412L97.1702 21.4165C78.4167 3.10684 37.0807 0.475124 2.46488 3.50899e-05C2.11979 -0.00216544 1.7819 0.0991789 1.495 0.29096C1.2081 0.482741 0.985444 0.756076 0.855539 1.07579C0.725634 1.3955 0.694428 1.74685 0.766258 2.08439C0.838088 2.42193 1.00962 2.73026 1.25845 2.96938Z" fill="#E43921"/>
<path fill-rule="evenodd" clip-rule="evenodd" d="M97.1859 21.4199C107.438 31.4218 112.188 51.2067 92.541 92.0081C124.481 77.7335 135.674 58.9675 130.17 53.5978L97.1859 21.4199Z" fill="#FF7557"/>
<path d="M21.9434 87.3636C31.9452 77.1117 51.7301 72.3608 92.5315 92.0083C78.257 60.0679 59.4943 48.8752 54.1214 54.3794L21.9434 87.3636Z" fill="#0CB6FF"/>
<path d="M92.5437 95.9302C94.7187 95.9302 96.4819 94.167 96.4819 91.9919C96.4819 89.8169 94.7187 88.0537 92.5437 88.0537C90.3687 88.0537 88.6055 89.8169 88.6055 91.9919C88.6055 94.167 90.3687 95.9302 92.5437 95.9302Z" fill="#4A4848"/>
</svg>
