<svg width="191" height="184" viewBox="0 0 191 184" fill="none" xmlns="http://www.w3.org/2000/svg">
<path d="M28.3574 117.301V82.751L52.1509 73.2988V106.545L28.3574 117.301Z" fill="#F7A80D"/>
<path d="M56.3867 168.799V134.249L80.1802 124.797V158.043L56.3867 168.799Z" fill="#F7A80D"/>
<path d="M84.418 117.301V82.751L108.211 73.2988V106.545L84.418 117.301Z" fill="#F7A80D"/>
<path d="M110.492 67.7576V33.2081L134.286 23.7559V57.0016L110.492 67.7576Z" fill="#F7A80D"/>
<path d="M167.207 67.7576V33.2081L191.001 23.7559V57.0016L167.207 67.7576Z" fill="#F7A80D"/>
<path d="M24.1201 77.8621L9.12695 70.6914L25.7498 62.543L42.0467 70.6914L24.1201 77.8621Z" fill="#F7A80D"/>
<path d="M52.1494 129.36L37.1562 122.189L53.7791 114.041L70.076 122.189L52.1494 129.36Z" fill="#F7A80D"/>
<path d="M80.1807 77.8621L65.1875 70.6914L81.8104 62.543L98.1073 70.6914L80.1807 77.8621Z" fill="#F7A80D"/>
<path d="M106.257 28.3191L91.2637 21.1485L107.887 13L124.183 21.1485L106.257 28.3191Z" fill="#F7A80D"/>
<path d="M162.97 28.3191L147.977 21.1485L164.599 13L180.896 21.1485L162.97 28.3191Z" fill="#F7A80D"/>
<path d="M23.7935 84.0545L0 74.2764V108.826L23.7935 120.234V84.0545Z" fill="#F7A80D"/>
<path d="M51.8248 135.553L28.0312 125.774V160.324L51.8248 171.732V135.553Z" fill="#F7A80D"/>
<path d="M79.8541 84.0545L56.0605 74.2764V108.826L79.8541 120.234V84.0545Z" fill="#F7A80D"/>
<path d="M105.93 34.5116L82.1367 24.7334V59.2829L105.93 70.6907V34.5116Z" fill="#F7A80D"/>
<path d="M162.643 34.5116L138.85 24.7334V59.2829L162.643 70.6907V34.5116Z" fill="#F7A80D"/>
</svg>
