<svg width="185" height="184" viewBox="0 0 185 184" fill="none" xmlns="http://www.w3.org/2000/svg">
<g clip-path="url(#clip0_1034_825)">
<path d="M61.7874 0.318618H116.328L59.7095 177.434C59.1276 179.254 58.0198 180.836 56.5419 181.956C55.0641 183.076 53.2906 183.679 51.4713 183.679H9.02516C7.64668 183.68 6.28797 183.333 5.06144 182.669C3.83492 182.005 2.77582 181.042 1.97177 179.86C1.16772 178.677 0.641833 177.31 0.43761 175.871C0.233387 174.431 0.356701 172.961 0.797348 171.582L53.5471 6.564C54.1287 4.74325 55.2368 3.16104 56.7151 2.04024C58.1934 0.919432 59.9675 0.318725 61.7874 0.318618Z" fill="url(#paint0_linear_1034_825)"/>
<path d="M141.044 119.115H54.5561C53.7521 119.114 52.9664 119.369 52.3014 119.846C51.6364 120.324 51.123 121.001 50.828 121.791C50.533 122.581 50.4701 123.446 50.6475 124.274C50.8249 125.102 51.2344 125.854 51.8226 126.433L107.398 181.2C109.016 182.793 111.147 183.679 113.359 183.679H162.332L141.044 119.115Z" fill="#0078D4"/>
<path d="M61.7881 0.318426C59.9482 0.310972 58.1543 0.924825 56.6684 2.07032C55.1825 3.21581 54.0824 4.83293 53.5288 6.68545L0.86291 171.432C0.392616 172.816 0.244969 174.299 0.432458 175.756C0.619946 177.213 1.13706 178.601 1.94004 179.802C2.74302 181.004 3.80826 181.983 5.04564 182.658C6.28302 183.333 7.65613 183.683 9.04882 183.679H52.5904C54.2121 183.373 55.7278 182.618 56.9827 181.492C58.2376 180.365 59.1868 178.907 59.7332 177.266L70.2358 144.586L107.751 181.53C109.323 182.903 111.295 183.662 113.335 183.679H162.126L140.727 119.116L78.3463 119.131L116.526 0.318426H61.7881Z" fill="url(#paint1_linear_1034_825)"/>
<path d="M131.45 6.5549C130.869 4.73709 129.763 3.1575 128.287 2.03866C126.811 0.919827 125.039 0.318136 123.222 0.318359H62.4375C64.2545 0.318469 66.0257 0.920287 67.5017 2.03908C68.9777 3.15787 70.0842 4.73727 70.6653 6.5549L123.417 171.58C123.858 172.959 123.982 174.43 123.778 175.869C123.574 177.309 123.048 178.677 122.244 179.859C121.44 181.042 120.381 182.005 119.154 182.67C117.927 183.335 116.568 183.681 115.189 183.681H175.976C177.355 183.681 178.714 183.334 179.94 182.669C181.166 182.004 182.225 181.041 183.029 179.858C183.833 178.676 184.359 177.308 184.563 175.869C184.766 174.429 184.643 172.959 184.202 171.58L131.45 6.5549Z" fill="url(#paint2_linear_1034_825)"/>
</g>
<defs>
<linearGradient id="paint0_linear_1034_825" x1="81.6657" y1="13.9063" x2="19.2624" y2="188.518" gradientUnits="userSpaceOnUse">
<stop stop-color="#114A8B"/>
<stop offset="1" stop-color="#0669BC"/>
</linearGradient>
<linearGradient id="paint1_linear_1034_825" x1="99.3599" y1="96.2395" x2="86.118" y2="100.48" gradientUnits="userSpaceOnUse">
<stop stop-opacity="0.3"/>
<stop offset="0.071" stop-opacity="0.2"/>
<stop offset="0.321" stop-opacity="0.1"/>
<stop offset="0.623" stop-opacity="0.05"/>
<stop offset="1" stop-opacity="0"/>
</linearGradient>
<linearGradient id="paint2_linear_1034_825" x1="92.1544" y1="8.75317" x2="160.494" y2="181.201" gradientUnits="userSpaceOnUse">
<stop stop-color="#3CCBF4"/>
<stop offset="1" stop-color="#2892DF"/>
</linearGradient>
<clipPath id="clip0_1034_825">
<rect width="185" height="184" fill="white"/>
</clipPath>
</defs>
</svg>
