<svg width="315" height="112" viewBox="0 0 315 112" fill="none" xmlns="http://www.w3.org/2000/svg">
<g clip-path="url(#clip0_485_9106)">
<path d="M37.1385 0.973755H54.3656V80.7122C45.5283 82.39 39.0401 83.0612 31.9932 83.0612C10.9625 83.0604 0 73.5535 0 55.3191C0 37.7565 11.6343 26.3474 29.6436 26.3474C32.4399 26.3474 34.5652 26.5704 37.1385 27.2415V0.973755ZM37.1385 41.1114C35.1252 40.441 33.4473 40.2173 31.3221 40.2173C22.5968 40.2173 17.5626 45.5871 17.5626 54.9828C17.5626 64.1563 22.373 69.1898 31.2103 69.1898C33.1111 69.1898 34.6777 69.0779 37.1385 68.7431V41.1114Z" fill="white"/>
<path d="M81.7708 27.5771V67.5113C81.7708 81.2708 80.7641 87.8702 77.7441 93.5755C74.947 99.0578 71.2551 102.525 63.649 106.328L47.6523 98.7215C55.2592 95.1422 58.9504 92.011 61.2993 87.1991C63.7608 82.2775 64.5445 76.5722 64.5445 61.583V27.5771H81.7708ZM64.5445 1.06543H81.7708V18.7399H64.5445V1.06543Z" fill="white"/>
<path d="M92.1758 31.4919C99.7833 27.9133 107.054 26.3474 114.996 26.3474C123.833 26.3474 129.65 28.6956 132.223 33.2823C133.677 35.855 134.124 39.2106 134.124 46.3707V81.3826C126.405 82.5011 116.673 83.2848 109.515 83.2848C95.0847 83.2848 88.5957 78.2492 88.5957 67.0638C88.5957 54.9821 97.2092 49.3894 118.352 47.599V43.7959C118.352 40.664 116.786 39.5462 112.423 39.5462C106.047 39.5462 98.8878 41.3358 92.175 44.804L92.1758 31.4919ZM119.135 58.8984C107.724 60.017 104.033 61.8074 104.033 66.2815C104.033 69.6372 106.159 71.2031 110.857 71.2031C113.43 71.2031 115.778 70.9801 119.135 70.4209V58.8984Z" fill="white"/>
<path d="M142.515 30.2615C152.693 27.577 161.083 26.3474 169.585 26.3474C178.422 26.3474 184.798 28.36 188.603 32.2756C192.182 35.9661 193.3 39.9929 193.3 48.6078V82.3893H176.073V49.2789C176.073 42.6795 173.836 40.2173 167.684 40.2173C165.335 40.2173 163.21 40.441 159.741 41.4477V82.3893H142.515V30.2615Z" fill="white"/>
<path d="M199.997 91.7865C206.039 94.9184 212.079 96.3718 218.454 96.3718C229.752 96.3718 234.562 91.7865 234.562 80.8233C234.562 80.7115 234.562 80.5996 234.562 80.4878C231.207 82.1649 227.85 82.8367 223.377 82.8367C208.275 82.8367 198.653 72.881 198.653 57.1088C198.653 37.5314 212.861 26.4585 238.029 26.4585C245.413 26.4585 252.237 27.2408 260.515 28.9186L254.616 41.3445C250.029 40.4497 254.249 41.2247 250.783 40.8892V42.6795L251.005 49.9494L251.117 59.3466C251.229 61.6948 251.228 64.0445 251.341 66.3934C251.341 68.5186 251.341 69.526 251.341 71.092C251.341 85.8582 250.111 92.7932 246.419 98.4978C241.05 106.888 231.765 111.027 218.566 111.027C211.854 111.027 206.038 110.02 199.996 107.671V91.7865H199.997ZM234.227 40.3292C234.004 40.3292 233.781 40.3292 233.669 40.3292H232.438C229.083 40.2173 225.168 41.1114 222.482 42.7892C218.344 45.1389 216.217 49.3901 216.217 55.4302C216.217 64.0445 220.469 68.966 228.075 68.966C230.424 68.966 232.327 68.5179 234.563 67.8475V66.6164V61.9192C234.563 59.9058 234.452 57.6673 234.452 55.3191L234.341 47.3774L234.228 41.6721V40.3292H234.227Z" fill="white"/>
<path d="M287.258 26.1229C304.484 26.1229 315 36.9742 315 54.5361C315 72.5468 304.038 83.8448 286.587 83.8448C269.359 83.8448 258.732 72.9935 258.732 55.5435C258.733 37.4202 269.696 26.1229 287.258 26.1229ZM286.921 69.9727C293.522 69.9727 297.438 64.4911 297.438 54.9828C297.438 45.587 293.634 39.9936 287.035 39.9936C280.211 39.9936 276.294 45.4759 276.294 54.9828C276.295 64.4919 280.211 69.9727 286.921 69.9727Z" fill="white"/>
</g>
<defs>
<clipPath id="clip0_485_9106">
<rect width="315" height="110.052" fill="white" transform="translate(0 0.973755)"/>
</clipPath>
</defs>
</svg>
