<svg width="255" height="169" viewBox="0 0 255 169" fill="none" xmlns="http://www.w3.org/2000/svg">
<path d="M219.663 61.2861C218.271 52.0881 213.166 44.6421 203.422 37.6341L197.853 34.1302L194.141 39.3861C189.501 45.9561 187.181 55.5921 187.645 64.352C188.109 67.418 189.037 73.112 192.749 77.93C189.501 79.682 182.541 81.872 173.724 81.872H1.10647L0.642441 83.624C-0.749637 93.2599 -0.749637 121.292 18.7394 142.754C33.5883 159.398 55.3975 167.72 84.1671 167.72C146.811 167.72 192.749 140.564 214.558 91.0699C222.911 91.0699 241.472 91.0699 250.752 73.988C251.216 73.55 251.68 72.674 253.072 69.17L254.001 67.418L248.896 63.914C243.328 60.8481 229.871 59.5341 219.663 61.2861ZM138.922 1.28027H112.473V23.6182H138.922V1.28027ZM138.922 28.4362H112.473V50.7741H138.922V28.4362ZM107.832 28.4362H81.3829V50.7741H107.832V28.4362ZM77.2067 28.4362H50.7572V50.7741H77.2067V28.4362ZM46.117 55.1541H19.6675V77.492H46.117V55.1541ZM77.2067 55.1541H50.7572V77.492H77.2067V55.1541ZM107.832 55.1541H81.3829V77.492H107.832V55.1541ZM138.922 55.1541H112.473V77.492H138.922V55.1541ZM170.012 55.1541H143.562V77.492H170.012V55.1541Z" fill="#316CE6"/>
</svg>
