<svg width="161" height="144" viewBox="0 0 161 144" fill="none" xmlns="http://www.w3.org/2000/svg">
<path d="M48.1121 127.925C41.9802 123.1 35.4377 118.476 30.9681 111.961C21.559 100.471 14.3165 87.1715 9.36516 73.1932C6.37157 64.1029 5.34645 54.3578 1.48497 45.6204C-2.54884 39.2723 2.17991 32.3379 9.13058 30.321C12.2229 29.7247 17.6636 26.8044 11.0959 28.8943C5.20684 33.2136 4.63956 24.9688 10.6771 24.4466C14.7977 23.9 16.3146 20.5274 14.9039 17.4915C10.479 14.6039 25.6299 11.4359 18.0057 7.12852C10.0689 -1.43963 29.1122 -3.08909 24.413 6.64349C23.2898 14.1265 37.7244 5.26894 34.3724 13.912C37.7779 18.0633 47.1216 14.8587 46.887 20.679C51.8465 21.02 53.549 25.1915 58.1997 25.5123C63.0279 27.6927 71.7715 29.4076 73.4117 34.846C68.6257 38.635 57.5463 27.0183 57.0111 37.5083C58.4588 53.0078 58.0897 68.9733 63.7568 83.7323C66.4372 92.6679 72.9388 99.7017 78.8071 106.663C84.4251 113.478 92.033 118.279 99.7893 122.319C106.591 125.527 113.924 127.653 121.339 128.991C124.345 126.691 129.654 118.139 134.341 121.742C134.568 125.799 125.036 130.217 133.894 129.768C139.1 128.197 142.707 133.791 146.992 128.743C150.94 133.421 163.4 125.757 160.592 135.317C156.792 137.77 151.253 136.288 147.449 139.662C141.178 136.527 136.184 142.463 129.238 141.715C121.528 143.096 113.681 143.652 105.864 143.663C93.0367 142.651 79.9391 142.224 67.7371 137.756C60.8613 135.758 54.154 131.842 48.1121 127.925ZM58.9444 132.623C65.6561 135.523 72.2199 138.584 79.5769 139.509C91.2481 141.13 103.301 143.631 115.013 141.352C109.713 138.959 104.231 142.282 98.9503 139.641C92.6173 141.002 85.82 139.291 79.3788 138.448C72.0583 135.187 64.1555 132.944 57.2998 128.706C48.729 125.577 61.7292 132.722 64.0442 133.302C69.3987 136.341 58.1545 131.742 56.5665 130.48C52.0811 127.962 51.5101 128.489 56.1237 131.043C57.0526 131.587 57.9702 132.159 58.9444 132.623ZM46.1713 123.594C52.6773 126.004 46.1423 119.019 43.1651 119.423C41.8444 117.131 38.1194 115.683 40.747 114.453C36.022 116.095 35.7956 108.213 33.5755 109.341C28.5745 107.761 31.6297 102.166 25.6708 98.7278C25.1274 95.1068 19.7528 91.9683 18.0422 86.5091C17.2856 83.7122 11.9682 75.6869 15.2335 83.1561C18.0133 90.3465 22.903 96.5097 26.9745 102.66C30.1329 108.516 33.8674 114.642 39.6206 118.296C41.562 120.159 43.433 123.009 46.1713 123.594ZM27.4355 103.013C27.6607 102.03 28.6242 105.139 27.4355 103.013V103.013ZM53.9647 126.481C51.8918 125.667 55.4036 125.836 53.9647 126.481V126.481ZM57.4928 127.77C55.881 128.765 57.1275 125.992 57.4928 127.77V127.77ZM61.9141 129.613C58.6689 128.348 64.0152 127.608 61.9141 129.613V129.613ZM69.4892 133.836C65.3969 133.125 70.7678 131.948 69.4892 133.836V133.836ZM54.9439 123.693C50.7202 123.664 58.2079 121.578 54.9439 123.693V123.693ZM58.2582 125.346C57.0778 125.848 58.1633 124.231 58.2582 125.346V125.346ZM74.8268 135.692C77.4914 137.374 90.3846 139.377 82.312 136.382C80.958 136.667 67.3421 132.528 74.8268 135.692ZM48.524 115.198C44.3858 113.96 48.2649 114.08 48.524 115.198V115.198ZM56.2344 119.699C52.0685 118.617 58.245 118.296 56.2344 119.699V119.699ZM62.7235 123.677C58.0526 122.587 65.6064 122.591 62.7235 123.677V123.677ZM45.382 111.779C48.5077 114.177 57.9916 112.088 50.1686 110.348C46.6115 108.452 38.5923 107.153 44.0588 111.492L45.382 111.779ZM67.1208 125.05C61.6587 123.782 68.4239 122.833 67.1208 125.05V125.05ZM60.5154 119.8C68.1566 121.961 54.0879 114.963 58.6287 119.003L59.6368 119.459L60.5154 119.8ZM73.7589 127.456C67.2195 126.457 80.9963 127.526 73.7589 127.456V127.456ZM42.5985 107.591C40.8136 107.703 42.3142 106.242 42.5985 107.591V107.591ZM86.0012 134.326C83.6402 136.14 86.1942 131.891 86.0012 134.326V134.326ZM54.9521 115.156C52.6905 115.103 54.5118 113.873 54.9521 115.156V115.156ZM43.2846 106.744C37.593 104.914 47.4392 106.494 43.2846 106.744V106.744ZM29.4625 97.8087C24.9432 94.2267 28.9449 95.8145 29.4625 97.8087V97.8087ZM65.7472 120.842C64.9863 119.973 65.3888 121.031 65.7472 120.842V120.842ZM88.3281 134.705C87.0986 135.206 88.2589 133.376 88.3281 134.705V134.705ZM63.7486 118.777C60.2041 118.258 64.1561 117.066 63.7486 118.777V118.777ZM46.9241 108.11C41.9683 106.02 50.017 107.78 46.9241 108.11V108.11ZM75.3833 125.799C70.6867 124.869 80.2027 123.89 75.3833 125.799V125.799ZM60.582 115.75C66.1334 116.464 53.9735 111.969 59.3607 115.346L60.582 115.75ZM79.8769 127.617C85.0635 124.52 83.3528 134.878 88.6747 128.493C93.9216 124.659 84.1421 133.232 90.6073 129.176C95.287 126.045 102.196 130.661 106.559 132.163C109.696 132.01 112.749 134.878 115.968 133.133C122.161 131.462 103.853 130.657 108.652 127.699C102.985 129.349 98.7994 125.733 96.0108 122.1C89.6526 120.631 82.3038 117.382 79.1291 111.751C77.8336 109.641 80.997 112.051 78.0109 108.596C74.1821 105.189 72.2703 101.318 69.6993 97.1759C66.6271 95.5384 66.2655 90.7133 65.9567 97.0161C65.9818 93.0378 62.2474 90.3597 61.3342 91.4707C61.3179 87.6402 65.3322 89.5614 62.5228 86.7274C61.9191 82.7572 59.928 78.6197 59.3311 74.1356C58.4029 71.976 59.1991 67.3484 56.1571 72.2389C55.0502 77.41 55.791 65.8877 57.5142 69.6848C59.7758 65.8097 56.6992 66.2657 56.5759 66.8011C58.0488 63.5311 57.5098 58.8903 56.1898 60.6593C56.9753 57.1912 57.4318 47.899 55.0181 49.5484C56.4816 45.9205 57.7941 32.9531 51.4352 37.899C48.8611 37.9355 44.3996 38.8332 42.2941 39.8819C48.9026 43.5268 41.6274 41.1979 38.9338 40.6179C38.5842 43.9911 35.9195 42.5347 32.5882 42.5674C37.91 43.2255 29.9971 48.009 26.9506 46.1507C22.986 48.043 30.3681 52.7737 27.0286 54.2376C27.4406 56.4388 20.9584 53.4406 21.4647 58.533C17.6189 56.9112 20.9383 64.5716 22.8628 61.9804C29.4059 63.7532 27.4689 67.7888 27.633 71.6262C26.5676 73.8594 22.3691 66.3733 26.6991 66.7193C23.2816 61.1689 22.9206 64.7113 20.0824 67.2905C19.4245 67.4761 27.3204 70.9594 22.3653 72.6793C26.7242 73.3543 26.8519 77.1716 27.7405 79.5866C30.3599 82.3169 29.8203 76.5702 32.9592 79.854C30.9719 76.9287 22.447 71.613 29.3116 73.3178C29.2738 70.3762 28.0688 68.002 30.1744 68.0593C32.2599 64.2873 27.9909 77.3647 32.6875 72.5686C33.9862 72.0011 34.312 68.7922 36.6477 72.873C40.0401 76.2135 37.8735 78.6311 33.0863 75.5712C33.9416 78.4794 39.4891 79.5156 38.4445 84.062C39.5502 88.0604 41.0973 86.5871 42.4456 86.3569C43.5022 90.2402 44.1041 87.3854 44.1531 85.534C48.9932 86.572 47.858 89.4343 49.3749 91.4336C52.71 92.9384 44.6009 81.2273 50.3258 87.912C56.3495 93.3542 52.5874 95.6246 47.18 94.7533C50.6013 94.4765 51.7025 99.3815 55.9847 99.2085C59.8871 101.067 62.5316 108.201 55.8036 105.23C53.4716 103.124 45.209 100.528 51.9585 104.531C58.1846 107.419 63.136 109.142 69.144 112.767C73.4419 115.836 75.2997 119.352 76.9286 120.048C73.3142 121.775 66.0397 118.67 71.4426 117.72C68.0704 117.107 64.2794 115.4 67.5069 119.6C70.254 121.895 77.233 121.652 78.4876 121.911C77.4267 124.248 75.6053 124.434 78.5285 124.614C75.267 126.354 79.5769 126.626 79.8769 127.617ZM73.2067 108.772C71.2206 106.695 70.7068 102.808 72.8533 106.188C73.9557 106.633 76.3783 112.545 73.2067 108.772ZM94.9335 122.578C94.97 123.519 96.1712 122.496 94.9335 122.578V122.578ZM70.0741 103.68C69.9949 100.541 70.7886 106.102 70.0741 103.68V103.68ZM67.9145 100.776C65.4146 95.9504 71.0602 102.141 67.9145 100.776V100.776ZM41.7425 82.7088C42.4664 85.217 43.211 82.3169 41.7425 82.7088V82.7088ZM62.5725 94.0003C63.4731 90.6145 63.6297 96.8393 62.5725 94.0003V94.0003ZM47.858 83.765C46.8222 81.8979 50.0258 85.5183 47.858 83.765V83.765ZM60.4833 87.8132C58.1186 82.515 62.1612 84.9169 61.0097 88.6813L60.4833 87.8132ZM38.708 73.2876C37.6515 71.5482 35.9031 66.4469 36.4666 64.8887C36.9723 67.4264 41.8582 75.8058 38.8596 68.3606C35.5497 62.1201 42.8205 70.3837 43.5689 71.9432C43.9185 73.4902 41.5249 71.5199 43.145 75.1516C40.1885 71.0172 41.401 77.4352 38.708 73.2876ZM31.98 68.6481C32.2555 64.6043 33.5183 71.4205 31.98 68.6481V68.6481ZM35.0069 69.6924C36.4503 66.6413 37.4534 73.9463 35.0069 69.6924V69.6924ZM27.7236 64.0577C25.2186 61.564 23.4049 59.269 27.8424 62.5101C29.5493 62.5762 24.0432 57.2906 28.2544 60.8317C32.6787 61.6388 30.4373 68.0932 27.7236 64.0577ZM31.5479 63.9589C32.3215 65.3781 33.0045 62.5151 31.5479 63.9589V63.9589ZM33.9045 64.7113C31.6957 60.5769 36.5817 66.4475 33.9045 64.7113V64.7113ZM29.2248 60.2404C21.942 53.752 38.3747 63.6292 30.4134 61.4407L29.2248 60.2404ZM50.095 72.3666C46.9411 70.4781 49.2561 59.0596 50.334 66.8671C53.398 65.8751 50.1642 70.9027 52.4471 70.853C52.0899 74.0236 51.0661 75.1648 50.095 72.3666ZM57.8142 76.9325C58.1224 73.4902 58.4639 79.2866 57.8142 76.9325V76.9325ZM56.474 75.6039C56.5067 77.3358 56.8193 74.1356 56.474 75.6039V75.6039ZM30.6511 58.109C25.9721 51.6502 44.2512 64.6408 33.6498 59.7465C32.5429 59.4546 31.2071 59.3515 30.6511 58.109ZM45.5178 65.9915C45.0745 60.553 46.5052 66.8911 45.5178 65.9915V65.9915ZM56.8023 73.2341C56.869 75.2837 57.674 70.1371 56.8023 73.2341V73.2341ZM31.3712 55.6449C34.1516 55.0485 42.894 60.5279 34.8667 57.2082C33.9749 56.2205 32.0706 56.6697 31.3712 55.6449ZM55.2514 67.5497C55.5489 61.9886 56.9143 64.23 55.264 68.348L55.2514 67.5497ZM33.4397 53.7079C34.5742 52.0453 30.4285 46.1922 34.0353 51.6093C35.595 52.8473 38.5464 53.6828 35.9396 54.2049C40.0394 57.8215 34.9409 55.1844 33.4397 53.7079ZM54.071 65.8141C54.7628 69.5244 54.8533 59.4792 54.071 65.8141V65.8141ZM31.0706 47.8581C31.531 49.0131 31.9385 47.4869 31.0706 47.8581V47.8581ZM36.454 51.0626C37.8389 48.1537 39.0074 54.3037 36.454 51.0626V51.0626ZM51.6327 59.5075C51.6201 58.3927 51.9201 61.1324 51.6327 59.5075V59.5075ZM50.7522 57.5623C48.6466 52.3623 52.7144 60.314 50.7522 57.5623V57.5623ZM49.4605 54.1514C49.1083 52.0037 50.6617 56.8502 49.4605 54.1514V54.1514ZM51.566 50.7292C50.1189 48.182 53.393 39.4988 53.759 44.8837C52.2327 49.0797 53.3188 51.425 54.3791 45.7972C56.3457 41.3709 53.9559 54.539 51.566 50.7292ZM53.7295 37.8166C53.8697 38.7495 54.3596 37.0428 53.7295 37.8166V37.8166ZM50.1158 109.035C49.2598 108.287 50.2258 109.509 50.1158 109.035V109.035ZM57.5589 112.8C61.6996 113.866 61.6795 112.158 57.9362 111.647C55.9256 109.776 49.5718 107.789 55.2596 111.417C55.6344 112.372 56.8231 112.347 57.5589 112.8ZM42.8613 103.033C45.1392 104.738 51.4516 107.855 46.1096 103.684C47.9108 101.59 42.6632 100.475 44.4034 99.0732C39.974 96.3612 40.9067 96.604 44.0129 96.6909C38.6911 94.3085 44.7814 94.4897 44.494 93.2686C42.4419 92.8648 34.2988 89.6476 39.0898 93.5316C34.2208 91.0505 37.9295 94.457 36.4578 94.099C31.4769 92.7415 40.8916 97.8924 35.6679 96.6129C38.5225 98.875 43.3544 102.413 36.8729 99.0065C36.022 100.236 41.513 102.1 42.8613 103.033ZM50.6453 107.509C46.0021 103.778 60.1085 110.558 50.6453 107.509V107.509ZM90.4953 131.656C89.2036 133.26 90.6186 129.776 90.4953 131.656V131.656ZM94.5914 133.38C96.775 131.266 94.682 136.753 98.2101 132.862C98.2466 130.076 98.1032 128.432 94.1556 131.817C93.065 132.422 92.5808 134.983 94.5914 133.38ZM29.5738 92.537C24.8727 89.9112 28.9028 89.8999 29.5738 92.537V92.537ZM33.9447 95.4031C28.15 92.9642 32.3202 92.7094 33.9447 95.4031V95.4031ZM58.8293 110.414C61.2606 112.574 69.9867 111.998 61.7788 110.682C60.5651 108.884 54.0634 109.316 58.8293 110.414ZM93.0323 131.547C89.4098 132.945 96.7706 128.407 93.0323 131.547V131.547ZM100.809 136.889C99.1975 137.33 100.833 135.882 100.809 136.889V136.889ZM100.822 135.478C96.8121 135.738 104.963 131.094 100.822 135.478V135.478ZM18.8151 83.5272C15.2869 78.492 16.6234 76.2292 13.2185 72.1156C12.572 68.9689 7.37908 61.8357 10.533 69.3923C13.4197 73.8148 14.2744 80.6592 18.8151 83.5272ZM99.522 134.084C96.397 131.94 107.143 129.159 99.522 134.084V134.084ZM105.338 136.362C102.923 135.679 109.154 133.087 105.338 136.362V136.362ZM28.2776 86.9696C25.457 86.7601 29.3682 85.3447 28.2776 86.9696V86.9696ZM104.124 134.807C107.817 132.426 103.273 132.792 103.454 135.025L104.124 134.807ZM54.0012 103.206C52.0484 103.342 53.8741 101.594 54.0012 103.206V103.206ZM57.0979 104.988C55.5847 105.301 56.1111 102.997 57.0979 104.988V104.988ZM110.05 136.416C114.783 133.001 107.184 135.762 109.059 137.066L110.05 136.416ZM108.237 135.54C104.169 136.971 112.094 132.31 108.237 135.54V135.54ZM117.497 141.706C114.352 141.146 120.085 139.974 117.497 141.706V141.706ZM30.6511 85.7976C34.1177 86.5745 44.5135 94.3412 38.3823 86.3367C35.2409 85.407 37.1245 77.7264 33.9208 79.084C36.0717 82.6792 35.688 84.2048 31.1725 81.9432C25.5023 79.1702 27.9858 83.3133 29.0971 84.457C27.5827 84.8024 31.0958 85.7699 30.6511 85.7976ZM14.8467 73.3134C15.4674 70.7417 9.12618 59.1785 11.8531 67.517C12.8355 69.2652 12.7336 72.5761 14.8467 73.3134ZM43.8556 91.2027C42.067 89.7099 43.7695 90.9888 43.8556 91.2027V91.2027ZM48.2517 92.2281C43.3915 91.1209 48.2517 89.5042 48.2517 92.2281V92.2281ZM86.3747 116.264C83.5006 116.222 85.6471 114.403 86.3747 116.264V116.264ZM88.2049 117.6C87.147 117.802 87.9325 116.559 88.2049 117.6V117.6ZM103.314 127.123C101.5 126.984 104.766 126.05 103.314 127.123V127.123ZM22.7389 75.329C18.2843 74.1809 26.8959 73.7198 22.7389 75.329V75.329ZM83.0183 113.313C80.3662 113.984 82.9698 110.623 83.0183 113.313V113.313ZM21.0974 71.4985C18.6258 70.9071 23.7665 70.5989 21.0974 71.4985V71.4985ZM28.8455 75.2541C28.0273 75.5919 28.7996 74.3703 28.8455 75.2541V75.2541ZM123.37 133.236C126.804 132.541 134.63 134.985 135.892 132.327C131.723 132.224 121.47 129.381 120.985 133.001L121.898 133.146L123.37 133.236ZM31.3083 75.8757C29.1826 75.7731 31.3712 73.1479 31.3083 75.8757V75.8757ZM10.9368 61.737C7.41618 60.9506 10.0117 56.5407 10.9368 61.737V61.737ZM15.7932 62.9586C11.3468 61.457 15.8555 61.2884 15.7932 62.9586V62.9586ZM18.5692 64.3244C17.7674 63.6739 17.9441 65.1422 18.5692 64.3244V64.3244ZM36.0427 75.5341C34.0938 74.9748 36.866 74.7766 36.0427 75.5341V75.5341ZM16.7227 61.2475C11.0928 60.6593 16.2504 57.3233 16.7227 61.2475V61.2475ZM6.75772 54.7805C5.78669 55.4631 6.61747 52.9706 6.75772 54.7805V54.7805ZM8.24194 53.6626C6.96714 53.9331 7.99981 51.5143 8.24194 53.6626V53.6626ZM16.4272 58.5487C19.8899 57.1912 10.1217 55.7348 15.7196 58.294L16.4272 58.5487ZM125.999 126.251C123.186 125.622 128.215 124.219 125.999 126.251V126.251ZM139.237 133.112C136.999 133.458 140.125 130.489 139.237 133.112V133.112ZM17.2636 54.2584C14.5172 54.7642 17.6303 51.7169 17.2636 54.2584V54.2584ZM5.61437 46.4514C4.98923 42.8644 5.07539 36.566 11.0594 38.6929C3.07233 40.2807 16.5907 48.6262 14.8838 42.0365C18.2434 42.202 21.4559 40.0505 19.6912 43.3117C26.3123 42.5838 30.8983 36.8415 37.2924 37.648C42.2721 36.9862 47.7171 36.488 53.0842 34.4805C57.4966 34.1635 61.7443 29.412 59.3274 26.5943C53.3106 26.0848 47.0096 26.8372 40.3602 28.162C32.9913 29.6919 26.2966 32.604 18.8604 33.8552C11.6097 34.8303 20.3163 36.537 18.239 36.9195C14.4593 38.2318 22.7508 39.1163 17.7497 40.5022C14.6618 39.9146 11.4456 38.8533 12.7657 35.5953C5.82379 36.4999 -0.279113 39.3792 5.20747 46.4464L5.615 46.4502L5.61437 46.4514ZM22.3483 37.9273C23.9728 31.9302 31.0662 42.8644 25.013 38.7256C24.2929 38.1821 23.0998 37.7417 22.3483 37.9273ZM22.664 35.0184C23.9105 36.0023 25.013 33.2708 22.664 35.0184V35.0184ZM25.6457 35.0687C25.8607 32.3083 32.4775 36.5289 26.7362 36.0602L25.6457 35.0687ZM29.7254 33.4275C30.1581 34.9738 31.2184 31.6824 29.7254 33.4275V33.4275ZM30.7706 32.7285C33.2542 29.746 44.8223 30.823 36.3547 32.4354C34.0843 30.7243 32.3454 33.4432 30.7706 32.7285ZM45.8707 30.3997C45.4971 22.2499 53.376 33.2916 45.8707 30.3997V30.3997ZM50.1567 30.3745C51.7226 26.2697 56.2382 28.7257 50.8843 29.5479C50.9988 29.9882 50.7239 31.6711 50.1567 30.3745ZM15.575 52.1522C10.6066 49.6642 20.254 49.2848 15.575 52.1522V52.1522ZM19.0371 53.1109C15.4674 52.4032 20.6786 51.3671 19.0371 53.1109V53.1109ZM8.83877 45.8752C5.67223 45.0939 11.5116 43.8181 8.83877 45.8752V45.8752ZM147.05 132.364C145.006 133.437 147.128 129.978 147.05 132.364V132.364ZM133.006 122.775C131.201 123.014 133.404 120.032 133.006 122.775V122.775ZM150.911 133.29C154.65 133.302 162.24 132.125 154.106 132.129C152.827 132.327 146.667 132.286 150.911 133.29ZM22.081 51.4275C25.1079 51.2218 26.8142 48.0908 21.4924 48.2682C13.2474 47.4171 28.7669 51.0947 20.4358 50.0416C19.3176 50.782 22.0144 51.6332 22.081 51.4275ZM24.7457 52.7775C23.8074 53.8092 24.4287 50.8355 24.7457 52.7775V52.7775ZM27.9078 44.344C26.0903 43.908 29.2197 42.7146 27.9078 44.344V44.344ZM17.8403 27.5159C23.2445 25.6815 30.6304 23.6162 33.1806 28.4218C30.5851 25.2997 32.1322 22.2222 34.583 26.7925C38.0496 31.4125 39.7841 24.6907 37.5307 23.1394C40.1017 26.3314 43.0211 27.8418 39.2495 23.342C43.35 18.4093 31.0455 23.9874 28.2493 23.9295C26.9047 24.5334 14.3568 27.1297 17.8403 27.5159ZM21.0068 21.4534C24.0879 19.1296 31.6624 22.8393 26.8016 19.1409C26.3249 18.7219 16.1592 21.9466 21.0068 21.4534ZM32.2385 21.9177C35.8409 22.0083 30.6845 17.0719 34.9774 19.3095C34.2743 17.0064 29.9769 16.5742 27.8758 15.6533C26.6871 17.7594 30.2927 21.9466 32.2385 21.9177ZM22.9766 11.7196C20.7892 12.5795 24.2231 10.0292 22.9766 11.7196V11.7196ZM27.5676 12.8173C33.3774 12.0486 26.0859 10.3167 26.3941 12.7563L27.5676 12.8173ZM18.9956 6.11255C14.9033 0.76909 26.6903 7.00962 22.5319 1.41453C19.0327 -1.3698 15.6731 4.55367 18.9956 6.11255ZM71.4904 34.3944C73.3671 31.0696 63.7473 29.9102 70.2282 33.2167C70.8244 33.4149 70.6898 34.624 71.4904 34.3944Z" fill="white"/>
</svg>
