<svg width="231" height="184" viewBox="0 0 231 184" fill="none" xmlns="http://www.w3.org/2000/svg">
<path d="M145.95 50.791H152.95L172.9 31.1095L173.88 22.7536C162.451 12.8021 148.64 5.88912 133.75 2.66772C118.86 -0.553672 103.384 0.0228484 88.7828 4.34283C74.1817 8.6628 60.9379 16.5836 50.3025 27.357C39.6671 38.1305 31.9913 51.4008 28 65.9146C30.2225 65.0158 32.6845 64.8701 35 65.5002L74.9 59.0088C74.9 59.0088 76.93 55.694 77.98 55.9012C86.5293 46.6383 98.3442 40.9495 111.006 39.9995C123.668 39.0495 136.219 42.9101 146.09 50.791H145.95Z" fill="#EA4335"/>
<path d="M201.319 65.9132C196.734 49.254 187.319 34.2775 174.229 22.8213L146.229 50.4443C152.065 55.1483 156.741 61.0981 159.906 67.845C163.071 74.5919 164.642 81.9598 164.499 89.3928V94.2959C167.772 94.2959 171.012 94.9318 174.036 96.1672C177.059 97.4027 179.807 99.2136 182.121 101.496C184.435 103.779 186.27 106.49 187.523 109.472C188.775 112.455 189.419 115.652 189.419 118.88C189.419 122.109 188.775 125.306 187.523 128.288C186.27 131.271 184.435 133.981 182.121 136.264C179.807 138.547 177.059 140.358 174.036 141.593C171.012 142.829 167.772 143.465 164.499 143.465H114.659L109.689 148.437V177.925L114.659 182.828H164.499C178.417 182.935 192 178.619 203.239 170.52C214.478 162.421 222.776 150.968 226.905 137.855C231.035 124.743 230.777 110.668 226.169 97.7113C221.561 84.7549 212.848 73.6058 201.319 65.9132Z" fill="#4285F4"/>
<path d="M64.7491 182.548H114.589V143.185H64.7491C61.1983 143.185 57.689 142.431 54.4591 140.976L47.4591 143.116L27.3691 162.798L25.6191 169.704C36.8852 178.096 50.6321 182.609 64.7491 182.548Z" fill="#34A853"/>
<path d="M64.7512 54.8627C51.2469 54.9423 38.1051 59.1809 27.1611 66.9865C16.2172 74.7921 8.0177 85.7748 3.70791 98.4009C-0.601885 111.027 -0.806769 124.666 3.12187 137.412C7.05052 150.158 14.9165 161.376 25.6212 169.498L54.5312 140.977C50.8573 139.34 47.641 136.848 45.1582 133.714C42.6754 130.581 41.0002 126.9 40.2763 122.988C39.5525 119.075 39.8017 115.048 41.0024 111.251C42.2031 107.454 44.3196 104.002 47.1703 101.19C50.0209 98.3773 53.5206 96.2893 57.369 95.1048C61.2175 93.9202 65.2998 93.6744 69.2657 94.3885C73.2316 95.1025 76.9627 96.7552 80.1388 99.2046C83.315 101.654 85.8413 104.827 87.5012 108.451L116.411 79.9306C110.343 72.1047 102.522 65.7697 93.5606 61.4209C84.5986 57.0722 74.7385 54.8276 64.7512 54.8627Z" fill="#FBBC05"/>
</svg>
