<svg width="425" height="176" viewBox="0 0 425 176" fill="none" xmlns="http://www.w3.org/2000/svg">
<path fill-rule="evenodd" clip-rule="evenodd" d="M32.0116 53.2911C31.1855 53.2911 30.979 52.8324 31.3921 52.1443L35.7291 45.9515C36.1421 45.2634 37.1748 44.8047 38.0009 44.8047H111.73C112.556 44.8047 112.763 45.4928 112.35 46.1809L108.839 52.1443C108.426 52.8324 107.393 53.5205 106.774 53.5205L32.0116 53.2911Z" fill="white"/>
<path fill-rule="evenodd" clip-rule="evenodd" d="M0.826098 74.3927C0 74.3927 -0.206524 73.934 0.206524 73.2459L4.54354 67.0531C4.95659 66.365 5.98921 65.9062 6.81531 65.9062H100.99C101.817 65.9062 102.23 66.5943 102.023 67.2824L100.371 72.7872C100.164 73.7046 99.3383 74.1633 98.5122 74.1633L0.826098 74.3927Z" fill="white"/>
<path fill-rule="evenodd" clip-rule="evenodd" d="M50.8046 95.4933C49.9785 95.4933 49.772 94.8052 50.185 94.1171L53.0764 88.383C53.4894 87.6949 54.3155 87.0068 55.1416 87.0068H96.4465C97.2726 87.0068 97.6857 87.6949 97.6857 88.6124L97.2726 94.1171C97.2726 95.0346 96.4465 95.7227 95.827 95.7227L50.8046 95.4933Z" fill="white"/>
<path fill-rule="evenodd" clip-rule="evenodd" d="M265.177 49.1626C252.166 52.8324 243.285 55.5847 230.481 59.2546C227.383 60.172 227.176 60.4014 224.491 56.9609C221.394 53.0617 219.122 50.5387 214.785 48.2451C201.774 41.1348 189.176 43.1991 177.404 51.6856C163.36 61.7776 156.132 76.6862 156.338 95.2647C156.545 113.614 167.904 128.752 184.219 131.275C198.263 133.339 210.035 127.834 219.328 116.137C221.187 113.614 222.839 110.861 224.904 107.65C217.47 107.65 208.176 107.65 185.045 107.65C180.708 107.65 179.676 104.669 181.121 100.769C183.806 93.6591 188.763 81.7322 191.654 75.7688C192.274 74.3926 193.719 72.0989 196.817 72.0989H271.992C271.579 78.2917 271.579 84.4846 270.753 90.6774C268.481 107.192 262.905 122.33 253.818 135.633C238.948 157.422 219.535 170.955 194.958 174.624C174.719 177.606 155.925 173.248 139.403 159.486C124.12 146.642 115.446 129.669 113.175 108.568C110.49 83.5671 117.099 61.0895 130.729 41.3642C145.393 20.0334 164.806 6.50092 188.556 1.68428C207.969 -2.2149 226.557 0.308097 243.285 12.9231C254.231 20.9508 262.079 31.9603 267.242 45.2634C268.481 47.3277 267.655 48.4745 265.177 49.1626Z" fill="white"/>
<path d="M333.536 175.999C314.742 175.54 297.6 169.577 283.144 155.815C270.959 144.117 263.317 129.209 260.839 111.548C257.121 85.6296 263.524 62.6932 277.567 42.2799C292.644 20.2609 310.818 8.79275 335.394 3.97612C356.46 -0.15243 376.286 2.14121 394.254 15.6737C410.569 28.0593 420.689 44.8029 423.374 66.8218C426.885 97.7859 418.83 123.016 399.623 144.576C385.993 159.943 369.264 169.577 350.058 173.935C344.481 175.081 338.905 175.311 333.536 175.999ZM382.688 83.336C382.482 80.3542 382.482 78.0606 382.069 75.767C378.351 53.0599 359.558 40.2156 339.938 45.2616C320.731 50.0782 308.34 63.6107 303.796 85.1709C300.079 103.061 307.927 121.181 322.796 128.521C334.155 134.025 345.514 133.337 356.46 127.144C372.775 117.741 381.656 103.061 382.688 83.336Z" fill="white"/>
</svg>
