<svg width="115" height="184" viewBox="0 0 115 184" fill="none" xmlns="http://www.w3.org/2000/svg">
<path fill-rule="evenodd" clip-rule="evenodd" d="M56.4299 25.1765C56.4299 36.6719 48.7258 46.3679 38.1991 49.3827V61.5458C44.8449 63.0538 50.6864 66.6798 54.9764 71.6766L65.1653 65.8085C64.5647 63.6533 64.2436 61.3815 64.2436 59.0348C64.2436 45.1302 75.5155 33.8583 89.4201 33.8583C103.325 33.8583 114.597 45.1302 114.597 59.0348C114.597 72.9394 103.325 84.2113 89.4201 84.2113C82.2365 84.2113 75.7556 81.2027 71.1687 76.3768L60.9518 82.261C61.9612 85.333 62.5072 88.6152 62.5072 92.0249C62.5072 95.3278 61.9948 98.5112 61.0452 101.5L71.3712 107.461C75.9453 102.759 82.3416 99.8374 89.4201 99.8374C103.325 99.8374 114.597 111.109 114.597 125.014C114.597 138.919 103.325 150.19 89.4201 150.19C75.5155 150.19 64.2436 138.919 64.2436 125.014C64.2436 122.565 64.5933 120.198 65.2454 117.959L55.1719 112.143C50.8647 117.259 44.9465 120.973 38.1991 122.504L38.1991 134.667C48.7258 137.682 56.4299 147.378 56.4299 158.873C56.4299 172.777 45.158 184.049 31.2534 184.049C17.3488 184.049 6.07693 172.777 6.07693 158.873C6.07693 146.754 14.6395 136.635 26.0449 134.236L26.0449 122.846C11.2633 120.367 0 107.511 0 92.0249C0 76.5387 11.2633 63.6831 26.0449 61.2034V49.8136C14.6395 47.4144 6.07693 37.2954 6.07693 25.1765C6.07693 11.2719 17.3488 0 31.2534 0C45.158 0 56.4299 11.2719 56.4299 25.1765ZM20.3224 25.1765C20.3224 31.2136 25.2164 36.1076 31.2534 36.1076C37.2905 36.1076 42.1845 31.2136 42.1845 25.1765C42.1845 19.1394 37.2905 14.2454 31.2534 14.2454C25.2164 14.2454 20.3224 19.1394 20.3224 25.1765ZM78.489 59.0348C78.489 65.0719 83.3831 69.9659 89.4201 69.9659C95.4572 69.9659 100.351 65.0719 100.351 59.0348C100.351 52.9977 95.4572 48.1037 89.4201 48.1037C83.3831 48.1037 78.489 52.9977 78.489 59.0348ZM89.4201 135.945C83.3831 135.945 78.489 131.051 78.489 125.014C78.489 118.977 83.3831 114.083 89.4201 114.083C95.4572 114.083 100.351 118.977 100.351 125.014C100.351 131.051 95.4572 135.945 89.4201 135.945ZM20.3224 158.873C20.3224 164.91 25.2164 169.804 31.2534 169.804C37.2905 169.804 42.1845 164.91 42.1845 158.873C42.1845 152.836 37.2905 147.942 31.2534 147.942C25.2164 147.942 20.3224 152.836 20.3224 158.873ZM31.2536 104.44C24.3967 104.44 18.8382 98.8817 18.8382 92.0249C18.8382 85.168 24.3967 79.6094 31.2536 79.6094C38.1104 79.6094 43.669 85.168 43.669 92.0249C43.669 98.8817 38.1104 104.44 31.2536 104.44Z" fill="white"/>
</svg>
