<svg width="180" height="180" viewBox="0 0 180 180" fill="none" xmlns="http://www.w3.org/2000/svg">
<path d="M90.293 175.698C137.755 175.698 176.23 137.223 176.23 89.7607C176.23 42.2988 137.755 3.82324 90.293 3.82324C42.831 3.82324 4.35547 42.2988 4.35547 89.7607C4.35547 137.223 42.831 175.698 90.293 175.698Z" fill="#316CE6"/>
<path d="M90.293 178.823C72.6781 178.823 55.4588 173.6 40.8125 163.814C26.1663 154.027 14.7509 140.118 8.00999 123.844C1.26906 107.569 -0.494677 89.662 2.94182 72.3856C6.37832 55.1091 14.8607 39.2397 27.3163 26.7841C39.7719 14.3285 55.6413 5.84609 72.9178 2.40959C90.1942 -1.0269 108.102 0.736832 124.376 7.47776C140.65 14.2187 154.559 25.6341 164.346 40.2803C174.132 54.9266 179.355 72.1459 179.355 89.7608C179.329 113.373 169.937 136.011 153.24 152.708C136.544 169.405 113.906 178.797 90.293 178.823ZM90.293 6.94828C73.9142 6.94828 57.9033 11.8052 44.2848 20.9047C30.6664 30.0043 20.0521 42.9378 13.7842 58.0698C7.51636 73.2018 5.87639 89.8526 9.07173 105.917C12.2671 121.981 20.1542 136.737 31.7357 148.318C43.3173 159.9 58.073 167.787 74.1371 170.982C90.2011 174.177 106.852 172.537 121.984 166.27C137.116 160.002 150.05 149.387 159.149 135.769C168.249 122.15 173.105 106.14 173.105 89.7608C173.081 67.8052 164.348 46.7559 148.823 31.231C133.298 15.706 112.249 6.97315 90.293 6.94828Z" fill="#C8E8EB"/>
<path d="M135.905 98.3576C135.673 98.3041 135.341 98.2124 135.113 98.1705C134.247 98.0508 133.376 97.9806 132.502 97.9601C130.851 97.8522 129.215 97.5838 127.617 97.1586C127.123 96.8807 126.717 96.4714 126.442 95.9763L125.343 95.6562C126.518 87.0666 124.5 78.3442 119.67 71.1443C119.951 70.8887 120.485 70.417 120.635 70.2782C120.597 69.7171 120.781 69.1635 121.146 68.7358C122.401 67.658 123.757 66.7048 125.197 65.8899C125.976 65.4938 126.732 65.0529 127.46 64.5695C127.636 64.4392 127.876 64.2326 128.06 64.0855C128.383 63.8793 128.66 63.6073 128.871 63.2873C129.083 62.9672 129.225 62.6063 129.288 62.2278C129.351 61.8494 129.334 61.4618 129.238 61.0904C129.142 60.719 128.968 60.3719 128.729 60.0718C128.49 59.7716 128.191 59.5251 127.851 59.3481C127.51 59.1712 127.136 59.0678 126.753 59.0446C126.37 59.0215 125.987 59.0791 125.627 59.2138C125.268 59.3484 124.941 59.5571 124.668 59.8263C124.482 59.9728 124.229 60.165 124.064 60.3083C123.427 60.9076 122.826 61.5432 122.264 62.2121C121.15 63.4359 119.921 64.5486 118.592 65.5343C118.069 65.7471 117.496 65.8092 116.94 65.7137L115.903 66.4539C109.939 60.1948 101.906 56.3132 93.2956 55.5302C93.2705 55.1681 93.2395 54.5125 93.2298 54.3143C92.7674 53.9937 92.4485 53.5051 92.3412 52.9527C92.2836 51.2996 92.3869 49.6449 92.6497 48.0119C92.8231 47.1568 92.947 46.2923 93.0207 45.4228C93.0291 45.2034 93.0162 44.8846 93.0162 44.6478C93.0545 44.2671 93.0125 43.8825 92.8929 43.519C92.7734 43.1555 92.5789 42.821 92.3221 42.5373C92.0653 42.2536 91.7519 42.0268 91.4021 41.8717C91.0523 41.7166 90.6738 41.6365 90.2911 41.6367C89.9085 41.6369 89.5301 41.7173 89.1804 41.8728C88.8307 42.0282 88.5175 42.2553 88.261 42.5392C88.0045 42.8232 87.8103 43.1578 87.6911 43.5215C87.5719 43.8851 87.5303 44.2697 87.5689 44.6504C87.5689 44.6762 87.5747 44.7007 87.5753 44.7266C87.5728 44.9524 87.5618 45.226 87.5689 45.4235C87.6433 46.2936 87.7674 47.1587 87.9406 48.0146C88.2018 49.6473 88.3033 51.3016 88.2439 52.954C88.0893 53.498 87.7826 53.9865 87.3598 54.3621L87.2953 55.5147C85.6383 55.6515 83.9929 55.9045 82.3713 56.2717C75.559 57.8112 69.3623 61.3516 64.5767 66.4384C64.2454 66.21 63.9171 65.9772 63.5919 65.7401C63.053 65.9013 62.4725 65.845 61.9747 65.5833C60.6457 64.5995 59.4158 63.4883 58.3027 62.2656C57.7423 61.5972 57.144 60.9616 56.5106 60.3619C56.3447 60.2199 56.0911 60.0263 55.9052 59.8779C55.3652 59.4423 54.6998 59.1913 54.0067 59.1615C53.5948 59.14 53.1836 59.2158 52.8066 59.3829C52.4295 59.5499 52.0971 59.8035 51.8364 60.1231C51.3949 60.7451 51.2175 61.5166 51.343 62.2689C51.4685 63.0213 51.8867 63.6934 52.5062 64.1384L52.5482 64.1681C52.7263 64.3139 52.9456 64.5004 53.1109 64.6211C53.8376 65.1046 54.5915 65.5459 55.369 65.9428C56.8085 66.7577 58.165 67.7114 59.4191 68.79C59.7449 69.2522 59.9347 69.7963 59.967 70.3608L60.8389 71.1404C56.0229 78.3661 54.0441 87.1155 55.2818 95.7104L54.1415 96.0421C53.8439 96.5174 53.444 96.9202 52.9708 97.2212C51.3736 97.6475 49.7385 97.9171 48.0889 98.0259C47.2146 98.0458 46.3421 98.116 45.4759 98.2363C45.2668 98.275 44.9764 98.3486 44.7486 98.4054L44.7247 98.4105L44.6859 98.4222C44.3087 98.4717 43.946 98.5996 43.621 98.7974C43.2959 98.9952 43.0158 99.2587 42.7984 99.571C42.5811 99.8834 42.4314 100.238 42.3588 100.611C42.2862 100.985 42.2924 101.369 42.377 101.74C42.4616 102.111 42.6227 102.46 42.85 102.766C43.0773 103.071 43.3657 103.325 43.697 103.512C44.0282 103.699 44.3949 103.816 44.7736 103.853C45.1522 103.89 45.5345 103.848 45.896 103.729L45.9366 103.723C45.9547 103.719 45.9702 103.71 45.9882 103.707C46.2128 103.655 46.4955 103.602 46.693 103.548C47.5245 103.283 48.3402 102.97 49.1362 102.612C50.67 101.993 52.2603 101.525 53.8846 101.215C54.4479 101.249 54.9903 101.441 55.4502 101.768L56.6377 101.564C59.3032 109.8 64.8904 116.775 72.3452 121.174L71.849 122.362C72.0797 122.84 72.1643 123.376 72.0923 123.902C71.4134 125.454 70.5879 126.937 69.6271 128.332C69.0988 129.028 68.6112 129.755 68.1667 130.508C68.0583 130.713 67.9208 131.027 67.8169 131.242C67.6203 131.57 67.4942 131.934 67.4471 132.313C67.3999 132.692 67.4325 133.076 67.5429 133.442C67.6533 133.807 67.8389 134.146 68.0879 134.435C68.3369 134.724 68.6438 134.959 68.9887 135.122C69.3336 135.286 69.7089 135.375 70.0906 135.385C70.4722 135.395 70.8517 135.325 71.2046 135.179C71.5575 135.034 71.876 134.816 72.1395 134.54C72.4031 134.263 72.606 133.935 72.7351 133.576L72.7396 133.571V133.564C72.8428 133.351 72.9893 133.072 73.0764 132.872C73.3866 132.056 73.6491 131.223 73.8625 130.376C74.3328 128.655 75.0427 127.007 75.9715 125.483C76.2962 125.179 76.7053 124.979 77.1453 124.91L77.7629 123.794C85.8482 126.903 94.7953 126.926 102.896 123.858C103.069 124.166 103.392 124.756 103.477 124.905C104.034 124.994 104.533 125.297 104.868 125.75C105.639 127.212 106.265 128.746 106.738 130.33C106.953 131.176 107.217 132.01 107.529 132.826C107.617 133.027 107.761 133.31 107.865 133.524C107.994 133.884 108.197 134.212 108.46 134.489C108.724 134.765 109.042 134.983 109.395 135.13C109.747 135.276 110.127 135.346 110.508 135.337C110.89 135.328 111.266 135.238 111.611 135.075C111.956 134.912 112.263 134.678 112.513 134.389C112.762 134.1 112.948 133.762 113.06 133.397C113.171 133.032 113.204 132.647 113.157 132.268C113.111 131.889 112.986 131.524 112.789 131.196C112.686 130.982 112.542 130.667 112.434 130.463C111.99 129.712 111.502 128.987 110.974 128.292C110.03 126.933 109.221 125.485 108.559 123.969C108.415 123.426 108.49 122.849 108.768 122.362C108.594 122.005 108.442 121.638 108.315 121.263C115.793 116.828 121.381 109.799 124.014 101.512C124.367 101.568 124.98 101.675 125.18 101.716C125.594 101.336 126.141 101.133 126.703 101.15C128.328 101.46 129.919 101.928 131.453 102.547C132.249 102.909 133.065 103.224 133.897 103.491C134.094 103.542 134.375 103.591 134.601 103.641C134.619 103.646 134.636 103.654 134.654 103.659L134.693 103.665C135.054 103.784 135.436 103.825 135.815 103.788C136.193 103.75 136.56 103.634 136.891 103.447C137.222 103.26 137.51 103.006 137.737 102.701C137.965 102.396 138.126 102.047 138.21 101.676C138.295 101.305 138.301 100.921 138.229 100.548C138.157 100.174 138.007 99.8202 137.79 99.5079C137.573 99.1956 137.294 98.932 136.969 98.7339C136.644 98.5359 136.282 98.4077 135.905 98.3576ZM110.027 70.6164L98.3867 78.8684L98.3461 78.849C97.9953 79.1048 97.5818 79.2608 97.1494 79.3004C96.7171 79.34 96.2821 79.2618 95.8907 79.0739C95.4992 78.886 95.1661 78.5956 94.9265 78.2335C94.687 77.8715 94.55 77.4512 94.5302 77.0175L94.5173 77.0111L93.7086 62.7471C99.8632 63.5113 105.597 66.2761 110.027 70.6164ZM88.0993 86.2517H92.4799L95.2032 89.6565L94.2268 93.9028L90.2929 95.7963L86.3472 93.899L85.3689 89.6507L88.0993 86.2517ZM83.9782 63.2466C84.9377 63.0306 85.9076 62.8639 86.8842 62.7471L86.0743 77.033L86.0149 77.0614C85.9965 77.4952 85.8609 77.9159 85.6224 78.2787C85.384 78.6415 85.0515 78.9329 84.6606 79.1217C84.2696 79.3106 83.8347 79.3899 83.4023 79.3512C82.9698 79.3125 82.556 79.1572 82.2048 78.9019L82.1822 78.9148L70.4667 70.608C74.1963 66.9427 78.8763 64.393 83.9782 63.2466ZM66.2185 75.9469L76.9143 85.5134L76.9027 85.5715C77.2306 85.8567 77.4748 86.2256 77.6094 86.6388C77.7441 87.052 77.764 87.494 77.6672 87.9176C77.5703 88.3412 77.3603 88.7306 77.0595 89.0442C76.7587 89.3579 76.3785 89.584 75.9592 89.6984L75.9483 89.7449L62.238 93.7008C61.5549 87.5052 62.9554 81.2578 66.2185 75.9469ZM80.5392 101.36L75.0919 114.523C69.8634 111.177 65.8855 106.198 63.7752 100.359L77.8327 97.9717L77.8566 98.0034C78.0118 97.9736 78.1696 97.9596 78.3277 97.9614C78.7219 97.9673 79.1086 98.0701 79.4536 98.2609C79.7987 98.4516 80.0914 98.7244 80.306 99.0552C80.5206 99.3859 80.6504 99.7644 80.684 100.157C80.7176 100.55 80.6539 100.945 80.4986 101.308L80.5392 101.36ZM96.6185 118.288C91.5216 119.457 86.2 119.183 81.2497 117.498L88.1632 104.997H88.1749C88.3804 104.615 88.6855 104.296 89.0578 104.073C89.4301 103.85 89.8557 103.733 90.2895 103.732C90.7232 103.732 91.149 103.849 91.5217 104.071C91.8944 104.293 92.2001 104.611 92.4063 104.993H92.458L99.3889 117.515C98.4893 117.816 97.5659 118.073 96.6185 118.289L96.6185 118.288ZM105.551 114.576L100.047 101.279L100.064 101.255C99.8199 100.686 99.8046 100.045 100.021 99.4656C100.238 98.8858 100.67 98.4119 101.227 98.1427C101.515 98.0021 101.828 97.9209 102.147 97.904C102.332 97.8954 102.517 97.9091 102.699 97.9446L102.723 97.9149L116.905 100.312C114.812 106.197 110.816 111.216 105.551 114.576ZM118.395 93.6544L104.616 89.6855L104.603 89.6275C104.184 89.5119 103.805 89.2852 103.505 88.9714C103.205 88.6577 102.996 88.2686 102.899 87.8454C102.802 87.4222 102.822 86.9807 102.956 86.5679C103.09 86.155 103.334 85.7862 103.66 85.5005L103.655 85.4728L114.292 75.9533C117.549 81.2503 118.99 87.4646 118.395 93.6544Z" fill="white"/>
</svg>
