<svg width="184" height="184" viewBox="0 0 184 184" fill="none" xmlns="http://www.w3.org/2000/svg">
<path d="M184 92C184 104.081 181.62 116.045 176.997 127.207C172.374 138.369 165.597 148.511 157.054 157.054C148.511 165.597 138.369 172.374 127.207 176.997C116.045 181.62 104.081 184 92 184C79.9187 184 67.9548 181.62 56.7931 176.997C45.6314 172.374 35.489 165.597 26.9462 157.054C18.4034 148.511 11.6264 138.369 7.00308 127.207C2.37976 116.045 0 104.081 0 92C0 79.9187 2.37976 67.9548 7.00308 56.7931C11.6264 45.6314 18.4034 35.489 26.9462 26.9462C35.489 18.4034 45.6314 11.6264 56.7931 7.00308C67.9548 2.37976 79.9187 0 92 0C104.081 0 116.045 2.37976 127.207 7.00308C138.369 11.6264 148.511 18.4034 157.054 26.9462C165.597 35.489 172.374 45.6314 176.997 56.7931C181.62 67.9548 184 79.9187 184 92Z" fill="white" fill-opacity="0.9"/>
<mask id="mask0_1034_1026" style="mask-type:luminance" maskUnits="userSpaceOnUse" x="5" y="5" width="174" height="174">
<path d="M178.43 92.0004C178.43 80.6505 176.195 69.411 171.851 58.925C167.508 48.4391 161.141 38.9107 153.116 30.8851C145.09 22.8595 135.562 16.4928 125.076 12.1494C114.59 7.80599 103.35 5.57031 92.0004 5.57031C80.6505 5.57031 69.411 7.80599 58.925 12.1494C48.4391 16.4928 38.9107 22.8595 30.8851 30.8851C22.8595 38.9107 16.4928 48.4391 12.1494 58.925C7.80599 69.411 5.57031 80.6505 5.57031 92.0004C5.57031 103.35 7.80599 114.59 12.1494 125.076C16.4928 135.562 22.8595 145.09 30.8851 153.116C38.9107 161.141 48.4391 167.508 58.925 171.851C69.411 176.195 80.6505 178.43 92.0004 178.43C103.35 178.43 114.59 176.195 125.076 171.851C135.562 167.508 145.09 161.141 153.116 153.116C161.141 145.09 167.508 135.562 171.851 125.076C176.195 114.59 178.43 103.35 178.43 92.0004Z" fill="white"/>
</mask>
<g mask="url(#mask0_1034_1026)">
<path d="M92 92H178.43" stroke="#E6E6E6" stroke-width="0.875318" stroke-linecap="square"/>
</g>
<mask id="mask1_1034_1026" style="mask-type:luminance" maskUnits="userSpaceOnUse" x="5" y="5" width="174" height="174">
<path d="M178.43 92.0004C178.43 80.6505 176.195 69.411 171.851 58.925C167.508 48.4391 161.141 38.9107 153.116 30.8851C145.09 22.8595 135.562 16.4928 125.076 12.1494C114.59 7.80599 103.35 5.57031 92.0004 5.57031C80.6505 5.57031 69.411 7.80599 58.925 12.1494C48.4391 16.4928 38.9107 22.8595 30.8851 30.8851C22.8595 38.9107 16.4928 48.4391 12.1494 58.925C7.80599 69.411 5.57031 80.6505 5.57031 92.0004C5.57031 103.35 7.80599 114.59 12.1494 125.076C16.4928 135.562 22.8595 145.09 30.8851 153.116C38.9107 161.141 48.4391 167.508 58.925 171.851C69.411 176.195 80.6505 178.43 92.0004 178.43C103.35 178.43 114.59 176.195 125.076 171.851C135.562 167.508 145.09 161.141 153.116 153.116C161.141 145.09 167.508 135.562 171.851 125.076C176.195 114.59 178.43 103.35 178.43 92.0004Z" fill="white"/>
</mask>
<g mask="url(#mask1_1034_1026)">
<path d="M92 92L153.115 30.8848" stroke="#E6E6E6" stroke-width="0.875318" stroke-linecap="square"/>
</g>
<mask id="mask2_1034_1026" style="mask-type:luminance" maskUnits="userSpaceOnUse" x="5" y="5" width="174" height="174">
<path d="M178.43 92.0004C178.43 80.6505 176.195 69.411 171.851 58.925C167.508 48.4391 161.141 38.9107 153.116 30.8851C145.09 22.8595 135.562 16.4928 125.076 12.1494C114.59 7.80599 103.35 5.57031 92.0004 5.57031C80.6505 5.57031 69.411 7.80599 58.925 12.1494C48.4391 16.4928 38.9107 22.8595 30.8851 30.8851C22.8595 38.9107 16.4928 48.4391 12.1494 58.925C7.80599 69.411 5.57031 80.6505 5.57031 92.0004C5.57031 103.35 7.80599 114.59 12.1494 125.076C16.4928 135.562 22.8595 145.09 30.8851 153.116C38.9107 161.141 48.4391 167.508 58.925 171.851C69.411 176.195 80.6505 178.43 92.0004 178.43C103.35 178.43 114.59 176.195 125.076 171.851C135.562 167.508 145.09 161.141 153.116 153.116C161.141 145.09 167.508 135.562 171.851 125.076C176.195 114.59 178.43 103.35 178.43 92.0004Z" fill="white"/>
</mask>
<g mask="url(#mask2_1034_1026)">
<path d="M92 92.0004V5.57031" stroke="#E6E6E6" stroke-width="0.875318" stroke-linecap="square"/>
</g>
<mask id="mask3_1034_1026" style="mask-type:luminance" maskUnits="userSpaceOnUse" x="5" y="5" width="174" height="174">
<path d="M178.43 92.0004C178.43 80.6505 176.195 69.411 171.851 58.925C167.508 48.4391 161.141 38.9107 153.116 30.8851C145.09 22.8595 135.562 16.4928 125.076 12.1494C114.59 7.80599 103.35 5.57031 92.0004 5.57031C80.6505 5.57031 69.411 7.80599 58.925 12.1494C48.4391 16.4928 38.9107 22.8595 30.8851 30.8851C22.8595 38.9107 16.4928 48.4391 12.1494 58.925C7.80599 69.411 5.57031 80.6505 5.57031 92.0004C5.57031 103.35 7.80599 114.59 12.1494 125.076C16.4928 135.562 22.8595 145.09 30.8851 153.116C38.9107 161.141 48.4391 167.508 58.925 171.851C69.411 176.195 80.6505 178.43 92.0004 178.43C103.35 178.43 114.59 176.195 125.076 171.851C135.562 167.508 145.09 161.141 153.116 153.116C161.141 145.09 167.508 135.562 171.851 125.076C176.195 114.59 178.43 103.35 178.43 92.0004Z" fill="white"/>
</mask>
<g mask="url(#mask3_1034_1026)">
<path d="M92 92L30.8848 30.8848" stroke="#E6E6E6" stroke-width="0.875318" stroke-linecap="square"/>
</g>
<mask id="mask4_1034_1026" style="mask-type:luminance" maskUnits="userSpaceOnUse" x="5" y="5" width="174" height="174">
<path d="M178.43 92.0004C178.43 80.6505 176.195 69.411 171.851 58.925C167.508 48.4391 161.141 38.9107 153.116 30.8851C145.09 22.8595 135.562 16.4928 125.076 12.1494C114.59 7.80599 103.35 5.57031 92.0004 5.57031C80.6505 5.57031 69.411 7.80599 58.925 12.1494C48.4391 16.4928 38.9107 22.8595 30.8851 30.8851C22.8595 38.9107 16.4928 48.4391 12.1494 58.925C7.80599 69.411 5.57031 80.6505 5.57031 92.0004C5.57031 103.35 7.80599 114.59 12.1494 125.076C16.4928 135.562 22.8595 145.09 30.8851 153.116C38.9107 161.141 48.4391 167.508 58.925 171.851C69.411 176.195 80.6505 178.43 92.0004 178.43C103.35 178.43 114.59 176.195 125.076 171.851C135.562 167.508 145.09 161.141 153.116 153.116C161.141 145.09 167.508 135.562 171.851 125.076C176.195 114.59 178.43 103.35 178.43 92.0004Z" fill="white"/>
</mask>
<g mask="url(#mask4_1034_1026)">
<path d="M92.0004 92H5.57031" stroke="#E6E6E6" stroke-width="0.875318" stroke-linecap="square"/>
</g>
<mask id="mask5_1034_1026" style="mask-type:luminance" maskUnits="userSpaceOnUse" x="5" y="5" width="174" height="174">
<path d="M178.43 92.0004C178.43 80.6505 176.195 69.411 171.851 58.925C167.508 48.4391 161.141 38.9107 153.116 30.8851C145.09 22.8595 135.562 16.4928 125.076 12.1494C114.59 7.80599 103.35 5.57031 92.0004 5.57031C80.6505 5.57031 69.411 7.80599 58.925 12.1494C48.4391 16.4928 38.9107 22.8595 30.8851 30.8851C22.8595 38.9107 16.4928 48.4391 12.1494 58.925C7.80599 69.411 5.57031 80.6505 5.57031 92.0004C5.57031 103.35 7.80599 114.59 12.1494 125.076C16.4928 135.562 22.8595 145.09 30.8851 153.116C38.9107 161.141 48.4391 167.508 58.925 171.851C69.411 176.195 80.6505 178.43 92.0004 178.43C103.35 178.43 114.59 176.195 125.076 171.851C135.562 167.508 145.09 161.141 153.116 153.116C161.141 145.09 167.508 135.562 171.851 125.076C176.195 114.59 178.43 103.35 178.43 92.0004Z" fill="white"/>
</mask>
<g mask="url(#mask5_1034_1026)">
<path d="M92 92L30.8848 153.115" stroke="#E6E6E6" stroke-width="0.875318" stroke-linecap="square"/>
</g>
<mask id="mask6_1034_1026" style="mask-type:luminance" maskUnits="userSpaceOnUse" x="5" y="5" width="174" height="174">
<path d="M178.43 92.0004C178.43 80.6505 176.195 69.411 171.851 58.925C167.508 48.4391 161.141 38.9107 153.116 30.8851C145.09 22.8595 135.562 16.4928 125.076 12.1494C114.59 7.80599 103.35 5.57031 92.0004 5.57031C80.6505 5.57031 69.411 7.80599 58.925 12.1494C48.4391 16.4928 38.9107 22.8595 30.8851 30.8851C22.8595 38.9107 16.4928 48.4391 12.1494 58.925C7.80599 69.411 5.57031 80.6505 5.57031 92.0004C5.57031 103.35 7.80599 114.59 12.1494 125.076C16.4928 135.562 22.8595 145.09 30.8851 153.116C38.9107 161.141 48.4391 167.508 58.925 171.851C69.411 176.195 80.6505 178.43 92.0004 178.43C103.35 178.43 114.59 176.195 125.076 171.851C135.562 167.508 145.09 161.141 153.116 153.116C161.141 145.09 167.508 135.562 171.851 125.076C176.195 114.59 178.43 103.35 178.43 92.0004Z" fill="white"/>
</mask>
<g mask="url(#mask6_1034_1026)">
<path d="M92 92V178.43" stroke="#E6E6E6" stroke-width="0.875318" stroke-linecap="square"/>
</g>
<mask id="mask7_1034_1026" style="mask-type:luminance" maskUnits="userSpaceOnUse" x="5" y="5" width="174" height="174">
<path d="M178.43 92.0004C178.43 80.6505 176.195 69.411 171.851 58.925C167.508 48.4391 161.141 38.9107 153.116 30.8851C145.09 22.8595 135.562 16.4928 125.076 12.1494C114.59 7.80599 103.35 5.57031 92.0004 5.57031C80.6505 5.57031 69.411 7.80599 58.925 12.1494C48.4391 16.4928 38.9107 22.8595 30.8851 30.8851C22.8595 38.9107 16.4928 48.4391 12.1494 58.925C7.80599 69.411 5.57031 80.6505 5.57031 92.0004C5.57031 103.35 7.80599 114.59 12.1494 125.076C16.4928 135.562 22.8595 145.09 30.8851 153.116C38.9107 161.141 48.4391 167.508 58.925 171.851C69.411 176.195 80.6505 178.43 92.0004 178.43C103.35 178.43 114.59 176.195 125.076 171.851C135.562 167.508 145.09 161.141 153.116 153.116C161.141 145.09 167.508 135.562 171.851 125.076C176.195 114.59 178.43 103.35 178.43 92.0004Z" fill="white"/>
</mask>
<g mask="url(#mask7_1034_1026)">
<path d="M92 92L153.115 153.115" stroke="#E6E6E6" stroke-width="0.875318" stroke-linecap="square"/>
</g>
<mask id="mask8_1034_1026" style="mask-type:luminance" maskUnits="userSpaceOnUse" x="5" y="5" width="174" height="174">
<path d="M178.43 92.0004C178.43 80.6505 176.195 69.411 171.851 58.925C167.508 48.4391 161.141 38.9107 153.116 30.8851C145.09 22.8595 135.562 16.4928 125.076 12.1494C114.59 7.80599 103.35 5.57031 92.0004 5.57031C80.6505 5.57031 69.411 7.80599 58.925 12.1494C48.4391 16.4928 38.9107 22.8595 30.8851 30.8851C22.8595 38.9107 16.4928 48.4391 12.1494 58.925C7.80599 69.411 5.57031 80.6505 5.57031 92.0004C5.57031 103.35 7.80599 114.59 12.1494 125.076C16.4928 135.562 22.8595 145.09 30.8851 153.116C38.9107 161.141 48.4391 167.508 58.925 171.851C69.411 176.195 80.6505 178.43 92.0004 178.43C103.35 178.43 114.59 176.195 125.076 171.851C135.562 167.508 145.09 161.141 153.116 153.116C161.141 145.09 167.508 135.562 171.851 125.076C176.195 114.59 178.43 103.35 178.43 92.0004Z" fill="white"/>
</mask>
<g mask="url(#mask8_1034_1026)">
<path d="M101.603 91.9998C101.603 90.7387 101.355 89.4899 100.872 88.3248C100.39 87.1597 99.6821 86.101 98.7904 85.2092C97.8987 84.3175 96.84 83.6101 95.6749 83.1275C94.5098 82.6449 93.2609 82.3965 91.9998 82.3965C90.7387 82.3965 89.4899 82.6449 88.3248 83.1275C87.1597 83.6101 86.101 84.3175 85.2092 85.2092C84.3175 86.101 83.6101 87.1597 83.1275 88.3248C82.6449 89.4899 82.3965 90.7387 82.3965 91.9998C82.3965 93.2609 82.6449 94.5098 83.1275 95.6749C83.6101 96.84 84.3175 97.8987 85.2092 98.7904C86.101 99.6821 87.1597 100.39 88.3248 100.872C89.4899 101.355 90.7387 101.603 91.9998 101.603C93.2609 101.603 94.5098 101.355 95.6749 100.872C96.84 100.39 97.8987 99.6821 98.7904 98.7904C99.6821 97.8987 100.39 96.84 100.872 95.6749C101.355 94.5098 101.603 93.2609 101.603 91.9998Z" stroke="#E6E6E6" stroke-width="0.875318" stroke-linecap="square"/>
</g>
<mask id="mask9_1034_1026" style="mask-type:luminance" maskUnits="userSpaceOnUse" x="5" y="5" width="174" height="174">
<path d="M178.43 92.0004C178.43 80.6505 176.195 69.411 171.851 58.925C167.508 48.4391 161.141 38.9107 153.116 30.8851C145.09 22.8595 135.562 16.4928 125.076 12.1494C114.59 7.80599 103.35 5.57031 92.0004 5.57031C80.6505 5.57031 69.411 7.80599 58.925 12.1494C48.4391 16.4928 38.9107 22.8595 30.8851 30.8851C22.8595 38.9107 16.4928 48.4391 12.1494 58.925C7.80599 69.411 5.57031 80.6505 5.57031 92.0004C5.57031 103.35 7.80599 114.59 12.1494 125.076C16.4928 135.562 22.8595 145.09 30.8851 153.116C38.9107 161.141 48.4391 167.508 58.925 171.851C69.411 176.195 80.6505 178.43 92.0004 178.43C103.35 178.43 114.59 176.195 125.076 171.851C135.562 167.508 145.09 161.141 153.116 153.116C161.141 145.09 167.508 135.562 171.851 125.076C176.195 114.59 178.43 103.35 178.43 92.0004Z" fill="white"/>
</mask>
<g mask="url(#mask9_1034_1026)">
<path d="M120.811 91.9995C120.811 88.2162 120.066 84.4697 118.618 80.9744C117.171 77.479 115.048 74.3029 112.373 71.6277C109.698 68.9525 106.522 66.8303 103.027 65.3825C99.5312 63.9347 95.7847 63.1895 92.0014 63.1895C88.2181 63.1895 84.4716 63.9347 80.9763 65.3825C77.481 66.8303 74.3049 68.9525 71.6297 71.6277C68.9545 74.3029 66.8322 77.479 65.3844 80.9744C63.9366 84.4697 63.1914 88.2162 63.1914 91.9995C63.1914 95.7828 63.9366 99.5293 65.3844 103.025C66.8322 106.52 68.9545 109.696 71.6297 112.371C74.3049 115.046 77.481 117.169 80.9763 118.616C84.4716 120.064 88.2181 120.81 92.0014 120.81C95.7847 120.81 99.5312 120.064 103.027 118.616C106.522 117.169 109.698 115.046 112.373 112.371C115.048 109.696 117.171 106.52 118.618 103.025C120.066 99.5293 120.811 95.7828 120.811 91.9995Z" stroke="#E6E6E6" stroke-width="0.875318" stroke-linecap="square"/>
</g>
<mask id="mask10_1034_1026" style="mask-type:luminance" maskUnits="userSpaceOnUse" x="5" y="5" width="174" height="174">
<path d="M178.43 92.0004C178.43 80.6505 176.195 69.411 171.851 58.925C167.508 48.4391 161.141 38.9107 153.116 30.8851C145.09 22.8595 135.562 16.4928 125.076 12.1494C114.59 7.80599 103.35 5.57031 92.0004 5.57031C80.6505 5.57031 69.411 7.80599 58.925 12.1494C48.4391 16.4928 38.9107 22.8595 30.8851 30.8851C22.8595 38.9107 16.4928 48.4391 12.1494 58.925C7.80599 69.411 5.57031 80.6505 5.57031 92.0004C5.57031 103.35 7.80599 114.59 12.1494 125.076C16.4928 135.562 22.8595 145.09 30.8851 153.116C38.9107 161.141 48.4391 167.508 58.925 171.851C69.411 176.195 80.6505 178.43 92.0004 178.43C103.35 178.43 114.59 176.195 125.076 171.851C135.562 167.508 145.09 161.141 153.116 153.116C161.141 145.09 167.508 135.562 171.851 125.076C176.195 114.59 178.43 103.35 178.43 92.0004Z" fill="white"/>
</mask>
<g mask="url(#mask10_1034_1026)">
<path d="M140.018 91.9991C140.018 85.6936 138.776 79.4495 136.363 73.6239C133.95 67.7984 130.413 62.5048 125.954 58.0462C121.495 53.5875 116.202 50.0505 110.376 47.6375C104.551 45.2245 98.3066 43.9824 92.0011 43.9824C85.6956 43.9824 79.4514 45.2245 73.6259 47.6375C67.8004 50.0505 62.5068 53.5875 58.0481 58.0462C53.5895 62.5048 50.0524 67.7984 47.6394 73.6239C45.2264 79.4495 43.9844 85.6936 43.9844 91.9991C43.9844 98.3046 45.2264 104.549 47.6394 110.374C50.0524 116.2 53.5895 121.493 58.0481 125.952C62.5068 130.411 67.8004 133.948 73.6259 136.361C79.4514 138.774 85.6956 140.016 92.0011 140.016C98.3066 140.016 104.551 138.774 110.376 136.361C116.202 133.948 121.495 130.411 125.954 125.952C130.413 121.493 133.95 116.2 136.363 110.374C138.776 104.549 140.018 98.3046 140.018 91.9991Z" stroke="#E6E6E6" stroke-width="0.875318" stroke-linecap="square"/>
</g>
<mask id="mask11_1034_1026" style="mask-type:luminance" maskUnits="userSpaceOnUse" x="5" y="5" width="174" height="174">
<path d="M178.43 92.0004C178.43 80.6505 176.195 69.411 171.851 58.925C167.508 48.4391 161.141 38.9107 153.116 30.8851C145.09 22.8595 135.562 16.4928 125.076 12.1494C114.59 7.80599 103.35 5.57031 92.0004 5.57031C80.6505 5.57031 69.411 7.80599 58.925 12.1494C48.4391 16.4928 38.9107 22.8595 30.8851 30.8851C22.8595 38.9107 16.4928 48.4391 12.1494 58.925C7.80599 69.411 5.57031 80.6505 5.57031 92.0004C5.57031 103.35 7.80599 114.59 12.1494 125.076C16.4928 135.562 22.8595 145.09 30.8851 153.116C38.9107 161.141 48.4391 167.508 58.925 171.851C69.411 176.195 80.6505 178.43 92.0004 178.43C103.35 178.43 114.59 176.195 125.076 171.851C135.562 167.508 145.09 161.141 153.116 153.116C161.141 145.09 167.508 135.562 171.851 125.076C176.195 114.59 178.43 103.35 178.43 92.0004Z" fill="white"/>
</mask>
<g mask="url(#mask11_1034_1026)">
<path d="M159.224 92.0007C159.224 83.173 157.485 74.4312 154.107 66.2754C150.729 58.1197 145.777 50.7087 139.535 44.4666C133.293 38.2245 125.882 33.2726 117.726 29.8944C109.57 26.5162 100.828 24.7773 92.0007 24.7773C83.173 24.7773 74.4312 26.5162 66.2754 29.8944C58.1197 33.2726 50.7087 38.2245 44.4666 44.4666C38.2245 50.7087 33.2726 58.1197 29.8944 66.2754C26.5162 74.4312 24.7773 83.173 24.7773 92.0007C24.7773 100.828 26.5162 109.57 29.8944 117.726C33.2726 125.882 38.2245 133.293 44.4666 139.535C50.7087 145.777 58.1197 150.729 66.2754 154.107C74.4312 157.485 83.173 159.224 92.0007 159.224C100.828 159.224 109.57 157.485 117.726 154.107C125.882 150.729 133.293 145.777 139.535 139.535C145.777 133.293 150.729 125.882 154.107 117.726C157.485 109.57 159.224 100.828 159.224 92.0007Z" stroke="#E6E6E6" stroke-width="0.875318" stroke-linecap="square"/>
</g>
<mask id="mask12_1034_1026" style="mask-type:luminance" maskUnits="userSpaceOnUse" x="5" y="5" width="174" height="174">
<path d="M178.43 92.0004C178.43 80.6505 176.195 69.411 171.851 58.925C167.508 48.4391 161.141 38.9107 153.116 30.8851C145.09 22.8595 135.562 16.4928 125.076 12.1494C114.59 7.80599 103.35 5.57031 92.0004 5.57031C80.6505 5.57031 69.411 7.80599 58.925 12.1494C48.4391 16.4928 38.9107 22.8595 30.8851 30.8851C22.8595 38.9107 16.4928 48.4391 12.1494 58.925C7.80599 69.411 5.57031 80.6505 5.57031 92.0004C5.57031 103.35 7.80599 114.59 12.1494 125.076C16.4928 135.562 22.8595 145.09 30.8851 153.116C38.9107 161.141 48.4391 167.508 58.925 171.851C69.411 176.195 80.6505 178.43 92.0004 178.43C103.35 178.43 114.59 176.195 125.076 171.851C135.562 167.508 145.09 161.141 153.116 153.116C161.141 145.09 167.508 135.562 171.851 125.076C176.195 114.59 178.43 103.35 178.43 92.0004Z" fill="white"/>
</mask>
<g mask="url(#mask12_1034_1026)">
<path d="M92 92.0006L110.267 86.0654C110.578 87.0224 110.813 88.0022 110.97 88.996C111.128 89.9898 111.207 90.9944 111.207 92.0006H92Z" fill="#004CFF" fill-opacity="0.6" stroke="#4C4C4C" stroke-width="1.31298"/>
</g>
<mask id="mask13_1034_1026" style="mask-type:luminance" maskUnits="userSpaceOnUse" x="5" y="5" width="174" height="174">
<path d="M178.43 92.0004C178.43 80.6505 176.195 69.411 171.851 58.925C167.508 48.4391 161.141 38.9107 153.116 30.8851C145.09 22.8595 135.562 16.4928 125.076 12.1494C114.59 7.80599 103.35 5.57031 92.0004 5.57031C80.6505 5.57031 69.411 7.80599 58.925 12.1494C48.4391 16.4928 38.9107 22.8595 30.8851 30.8851C22.8595 38.9107 16.4928 48.4391 12.1494 58.925C7.80599 69.411 5.57031 80.6505 5.57031 92.0004C5.57031 103.35 7.80599 114.59 12.1494 125.076C16.4928 135.562 22.8595 145.09 30.8851 153.116C38.9107 161.141 48.4391 167.508 58.925 171.851C69.411 176.195 80.6505 178.43 92.0004 178.43C103.35 178.43 114.59 176.195 125.076 171.851C135.562 167.508 145.09 161.141 153.116 153.116C161.141 145.09 167.508 135.562 171.851 125.076C176.195 114.59 178.43 103.35 178.43 92.0004Z" fill="white"/>
</mask>
<g mask="url(#mask13_1034_1026)">
<path d="M92 92.0006L112.246 38.0547C115.072 39.1153 117.811 40.3964 120.436 41.8861C123.061 43.3757 125.566 45.0694 127.926 46.9514L92 92.0006Z" fill="#CEFF29" fill-opacity="0.6" stroke="#4C4C4C" stroke-width="1.31298"/>
</g>
<mask id="mask14_1034_1026" style="mask-type:luminance" maskUnits="userSpaceOnUse" x="5" y="5" width="174" height="174">
<path d="M178.43 92.0004C178.43 80.6505 176.195 69.411 171.851 58.925C167.508 48.4391 161.141 38.9107 153.116 30.8851C145.09 22.8595 135.562 16.4928 125.076 12.1494C114.59 7.80599 103.35 5.57031 92.0004 5.57031C80.6505 5.57031 69.411 7.80599 58.925 12.1494C48.4391 16.4928 38.9107 22.8595 30.8851 30.8851C22.8595 38.9107 16.4928 48.4391 12.1494 58.925C7.80599 69.411 5.57031 80.6505 5.57031 92.0004C5.57031 103.35 7.80599 114.59 12.1494 125.076C16.4928 135.562 22.8595 145.09 30.8851 153.116C38.9107 161.141 48.4391 167.508 58.925 171.851C69.411 176.195 80.6505 178.43 92.0004 178.43C103.35 178.43 114.59 176.195 125.076 171.851C135.562 167.508 145.09 161.141 153.116 153.116C161.141 145.09 167.508 135.562 171.851 125.076C176.195 114.59 178.43 103.35 178.43 92.0004Z" fill="white"/>
</mask>
<g mask="url(#mask14_1034_1026)">
<path d="M92 92.0001L42.7637 33.0245C47.401 29.153 52.4787 25.842 57.8917 23.16C63.3046 20.478 69.015 18.4438 74.9045 17.0996L92 92.0001Z" fill="#FF6800" fill-opacity="0.6" stroke="#4C4C4C" stroke-width="1.31298"/>
</g>
<mask id="mask15_1034_1026" style="mask-type:luminance" maskUnits="userSpaceOnUse" x="5" y="5" width="174" height="174">
<path d="M178.43 92.0004C178.43 80.6505 176.195 69.411 171.851 58.925C167.508 48.4391 161.141 38.9107 153.116 30.8851C145.09 22.8595 135.562 16.4928 125.076 12.1494C114.59 7.80599 103.35 5.57031 92.0004 5.57031C80.6505 5.57031 69.411 7.80599 58.925 12.1494C48.4391 16.4928 38.9107 22.8595 30.8851 30.8851C22.8595 38.9107 16.4928 48.4391 12.1494 58.925C7.80599 69.411 5.57031 80.6505 5.57031 92.0004C5.57031 103.35 7.80599 114.59 12.1494 125.076C16.4928 135.562 22.8595 145.09 30.8851 153.116C38.9107 161.141 48.4391 167.508 58.925 171.851C69.411 176.195 80.6505 178.43 92.0004 178.43C103.35 178.43 114.59 176.195 125.076 171.851C135.562 167.508 145.09 161.141 153.116 153.116C161.141 145.09 167.508 135.562 171.851 125.076C176.195 114.59 178.43 103.35 178.43 92.0004Z" fill="white"/>
</mask>
<g mask="url(#mask15_1034_1026)">
<path d="M92.0007 92.0011L25.8576 104.004C24.5981 97.0636 24.4388 89.9677 25.3857 82.9775C26.3326 75.9873 28.3739 69.1895 31.4345 62.834L92.0007 92.0011Z" fill="#FFC400" fill-opacity="0.6" stroke="#4C4C4C" stroke-width="1.31298"/>
</g>
<mask id="mask16_1034_1026" style="mask-type:luminance" maskUnits="userSpaceOnUse" x="5" y="5" width="174" height="174">
<path d="M178.43 92.0004C178.43 80.6505 176.195 69.411 171.851 58.925C167.508 48.4391 161.141 38.9107 153.116 30.8851C145.09 22.8595 135.562 16.4928 125.076 12.1494C114.59 7.80599 103.35 5.57031 92.0004 5.57031C80.6505 5.57031 69.411 7.80599 58.925 12.1494C48.4391 16.4928 38.9107 22.8595 30.8851 30.8851C22.8595 38.9107 16.4928 48.4391 12.1494 58.925C7.80599 69.411 5.57031 80.6505 5.57031 92.0004C5.57031 103.35 7.80599 114.59 12.1494 125.076C16.4928 135.562 22.8595 145.09 30.8851 153.116C38.9107 161.141 48.4391 167.508 58.925 171.851C69.411 176.195 80.6505 178.43 92.0004 178.43C103.35 178.43 114.59 176.195 125.076 171.851C135.562 167.508 145.09 161.141 153.116 153.116C161.141 145.09 167.508 135.562 171.851 125.076C176.195 114.59 178.43 103.35 178.43 92.0004Z" fill="white"/>
</mask>
<g mask="url(#mask16_1034_1026)">
<path d="M91.9999 92L60.424 113.876C59.8512 113.049 59.3111 112.2 58.805 111.331C58.2988 110.462 57.827 109.573 57.3906 108.667L91.9999 92Z" fill="#29FFCE" fill-opacity="0.6" stroke="#4C4C4C" stroke-width="1.31298"/>
</g>
<mask id="mask17_1034_1026" style="mask-type:luminance" maskUnits="userSpaceOnUse" x="5" y="5" width="174" height="174">
<path d="M178.43 92.0004C178.43 80.6505 176.195 69.411 171.851 58.925C167.508 48.4391 161.141 38.9107 153.116 30.8851C145.09 22.8595 135.562 16.4928 125.076 12.1494C114.59 7.80599 103.35 5.57031 92.0004 5.57031C80.6505 5.57031 69.411 7.80599 58.925 12.1494C48.4391 16.4928 38.9107 22.8595 30.8851 30.8851C22.8595 38.9107 16.4928 48.4391 12.1494 58.925C7.80599 69.411 5.57031 80.6505 5.57031 92.0004C5.57031 103.35 7.80599 114.59 12.1494 125.076C16.4928 135.562 22.8595 145.09 30.8851 153.116C38.9107 161.141 48.4391 167.508 58.925 171.851C69.411 176.195 80.6505 178.43 92.0004 178.43C103.35 178.43 114.59 176.195 125.076 171.851C135.562 167.508 145.09 161.141 153.116 153.116C161.141 145.09 167.508 135.562 171.851 125.076C176.195 114.59 178.43 103.35 178.43 92.0004Z" fill="white"/>
</mask>
<g mask="url(#mask17_1034_1026)">
<path d="M92.0011 92L100.044 139.338C96.9435 139.865 93.7984 140.086 90.6544 139.998C87.5105 139.91 84.3828 139.513 81.3164 138.813L92.0011 92Z" fill="#7DFF7A" fill-opacity="0.6" stroke="#4C4C4C" stroke-width="1.31298"/>
</g>
<mask id="mask18_1034_1026" style="mask-type:luminance" maskUnits="userSpaceOnUse" x="5" y="5" width="174" height="174">
<path d="M178.43 92.0004C178.43 80.6505 176.195 69.411 171.851 58.925C167.508 48.4391 161.141 38.9107 153.116 30.8851C145.09 22.8595 135.562 16.4928 125.076 12.1494C114.59 7.80599 103.35 5.57031 92.0004 5.57031C80.6505 5.57031 69.411 7.80599 58.925 12.1494C48.4391 16.4928 38.9107 22.8595 30.8851 30.8851C22.8595 38.9107 16.4928 48.4391 12.1494 58.925C7.80599 69.411 5.57031 80.6505 5.57031 92.0004C5.57031 103.35 7.80599 114.59 12.1494 125.076C16.4928 135.562 22.8595 145.09 30.8851 153.116C38.9107 161.141 48.4391 167.508 58.925 171.851C69.411 176.195 80.6505 178.43 92.0004 178.43C103.35 178.43 114.59 176.195 125.076 171.851C135.562 167.508 145.09 161.141 153.116 153.116C161.141 145.09 167.508 135.562 171.851 125.076C176.195 114.59 178.43 103.35 178.43 92.0004Z" fill="white"/>
</mask>
<g mask="url(#mask18_1034_1026)">
<path d="M92 92L152.599 139.224C150.744 141.604 148.751 143.873 146.629 146.019C144.507 148.165 142.26 150.184 139.901 152.066L92 92Z" fill="#FF6800" fill-opacity="0.6" stroke="#4C4C4C" stroke-width="1.31298"/>
</g>
<path d="M178.43 92.0004C178.43 80.6505 176.195 69.411 171.851 58.925C167.508 48.4391 161.141 38.9107 153.116 30.8851C145.09 22.8595 135.562 16.4928 125.076 12.1494C114.59 7.80599 103.35 5.57031 92.0004 5.57031C80.6505 5.57031 69.411 7.80599 58.925 12.1494C48.4391 16.4928 38.9107 22.8595 30.8851 30.8851C22.8595 38.9107 16.4928 48.4391 12.1494 58.925C7.80599 69.411 5.57031 80.6505 5.57031 92.0004C5.57031 103.35 7.80599 114.59 12.1494 125.076C16.4928 135.562 22.8595 145.09 30.8851 153.116C38.9107 161.141 48.4391 167.508 58.925 171.851C69.411 176.195 80.6505 178.43 92.0004 178.43C103.35 178.43 114.59 176.195 125.076 171.851C135.562 167.508 145.09 161.141 153.116 153.116C161.141 145.09 167.508 135.562 171.851 125.076C176.195 114.59 178.43 103.35 178.43 92.0004Z" stroke="#11557C" stroke-width="3.50127" stroke-linecap="square"/>
</svg>
