<svg width="89" height="183" viewBox="0 0 89 183" fill="none" xmlns="http://www.w3.org/2000/svg">
<path d="M60.3913 21.8967C52.4786 12.5004 45.6649 2.95737 44.2729 0.975347C44.1264 0.82853 43.9065 0.82853 43.76 0.975347C42.3679 2.95737 35.5543 12.5004 27.6416 21.8967C-40.2755 108.591 38.3384 167.098 38.3384 167.098L38.9977 167.539C39.5838 176.567 41.0492 189.561 41.0492 189.561H43.9798H46.9104C46.9104 189.561 48.3758 176.641 48.9619 167.539L49.6212 167.025C49.6945 167.098 128.309 108.591 60.3913 21.8967ZM43.9798 165.776C43.9798 165.776 40.4631 162.767 39.5106 161.226V161.078L43.76 66.6757C43.76 66.382 44.1996 66.382 44.1996 66.6757L48.449 161.078V161.226C47.4965 162.767 43.9798 165.776 43.9798 165.776Z" fill="white"/>
</svg>
