<svg width="180" height="180" viewBox="0 0 180 180" fill="none" xmlns="http://www.w3.org/2000/svg">
<path fill-rule="evenodd" clip-rule="evenodd" d="M164.913 138.735C155.178 138.486 147.64 139.479 141.317 142.215C139.493 142.96 136.577 142.96 136.328 145.321C137.307 146.314 137.424 147.928 138.282 149.301C139.737 151.787 142.286 155.137 144.602 156.882C147.156 158.871 149.711 160.852 152.39 162.592C157.13 165.587 162.483 167.319 167.098 170.304C169.783 172.041 172.449 174.276 175.133 176.145C176.466 177.139 177.311 178.757 179.021 179.372V178.996C178.163 177.881 177.924 176.265 177.077 175.015C175.863 173.781 174.645 172.656 173.426 171.418C169.897 166.572 165.513 162.351 160.781 158.871C156.885 156.13 148.367 152.401 146.792 147.816C146.792 147.816 146.665 147.684 146.546 147.562C149.222 147.31 152.39 146.314 154.942 145.56C159.071 144.445 162.842 144.697 167.098 143.582C169.047 143.081 170.993 142.456 172.948 141.845V140.718C170.747 138.486 169.172 135.499 166.862 133.388C160.664 127.922 153.845 122.582 146.792 118.101C143.017 115.615 138.152 114.007 134.137 111.889C132.684 111.142 130.255 110.774 129.4 109.524C127.209 106.791 125.988 103.192 124.41 99.9553C120.887 93.1276 117.475 85.5492 114.439 78.3293C112.251 73.486 110.913 68.6426 108.236 64.1657C95.7032 43.0344 82.0864 30.241 61.1674 17.6865C56.6665 15.0736 51.3159 13.9557 45.6041 12.5882C42.5585 12.4581 39.5207 12.2164 36.4803 12.0943C34.5314 11.2207 32.5824 8.85742 30.8829 7.73953C23.9471 3.26791 6.07631 -6.42412 0.964793 6.37466C-2.31988 14.4576 5.82943 22.4077 8.62816 26.5102C10.6941 29.3647 13.3733 32.6016 14.8259 35.8278C15.6783 37.9415 15.9226 40.1826 16.7775 42.4157C18.7213 47.8831 20.5429 53.9745 23.1026 59.0728C24.4357 61.683 25.8935 64.4206 27.5956 66.7706C28.5779 68.1461 30.2748 68.7595 30.6412 71.0032C28.9443 73.486 28.8118 77.2141 27.8399 80.3235C23.4638 94.3677 25.1633 111.766 31.3688 122.079C33.31 125.185 37.9382 132.023 44.1411 129.407C49.6138 127.174 48.3977 120.09 49.9777 113.879C50.3415 112.378 50.0972 111.392 50.8248 110.399V110.651C52.5269 114.125 54.2342 117.472 55.8142 120.964C59.59 127.047 66.1516 133.387 71.6295 137.608C74.5399 139.854 76.8527 143.7 80.5012 145.072V144.696H80.2621C79.5293 143.581 78.4379 143.08 77.4634 142.214C75.2753 139.976 72.8482 137.24 71.1383 134.756C66.032 127.799 61.526 120.09 57.5215 112.137C55.5699 108.275 53.8704 104.054 52.2878 100.203C51.5602 98.719 51.5602 96.4755 50.3415 95.7318C48.512 98.4628 45.8432 100.828 44.5075 104.173C42.1947 109.523 41.9531 116.108 41.0955 122.947C40.6121 123.077 40.8564 122.947 40.6121 123.194C36.7246 122.2 35.3863 118.1 33.9233 114.631C30.2748 105.796 29.6615 91.629 32.8293 81.4369C33.6764 78.832 37.3353 70.6297 35.8697 68.1443C35.1343 65.7731 32.7045 64.4188 31.3688 62.5468C29.7914 60.1862 28.079 57.2095 26.9953 54.594C24.0745 47.637 22.6062 39.9285 19.4541 32.9715C17.9937 29.7346 15.434 26.3783 13.3733 23.4016C11.0579 20.0453 8.50603 17.6846 6.67919 13.7122C6.07628 12.3421 5.22393 10.1036 6.19324 8.61661C6.43229 7.62086 6.92605 7.24643 7.90053 6.99683C9.47273 5.62935 13.9787 7.36594 15.5561 8.11209C20.0595 9.97084 23.8302 11.7207 27.5956 14.3256C29.3003 15.5709 31.1245 17.9316 33.31 18.5582H35.8696C39.7598 19.4212 44.1411 18.7999 47.7921 19.9231C54.2342 22.0341 60.0707 25.1408 65.3044 28.4972C81.2314 38.8132 94.3675 53.4814 103.242 71.0014C104.705 73.8559 105.318 76.4687 106.654 79.4454C109.208 85.5474 112.373 91.7609 114.923 97.7203C117.475 103.562 119.912 109.522 123.566 114.377C125.385 116.982 132.684 118.349 135.969 119.717C138.396 120.832 142.172 121.828 144.363 123.193C148.497 125.799 152.624 128.786 156.522 131.649C158.463 133.14 164.546 136.244 164.913 138.733" fill="#0DAED2"/>
<path fill-rule="evenodd" clip-rule="evenodd" d="M40.854 30.7231C38.7907 30.7231 37.3354 30.978 35.8672 31.3472V31.5967H36.1037C37.0859 33.5803 38.7907 34.9584 39.9964 36.695C40.9761 38.6839 41.8284 40.6647 42.8003 42.6562C42.9198 42.5341 43.0368 42.404 43.0368 42.404C44.7519 41.1666 45.6016 39.1804 45.6016 36.1931C44.8662 35.3168 44.7519 34.4538 44.1386 33.5802C43.411 32.3402 41.8284 31.7189 40.854 30.7231Z" fill="#0DAED2"/>
</svg>
