<svg width="181" height="183" viewBox="0 0 181 183" fill="none" xmlns="http://www.w3.org/2000/svg">
<path d="M116.631 78.017C123.734 78.017 129.492 72.1956 129.492 65.0144C129.492 57.8332 123.734 52.0117 116.631 52.0117C109.528 52.0117 103.77 57.8332 103.77 65.0144C103.77 72.1956 109.528 78.017 116.631 78.017Z" fill="#8C99CD"/>
<path d="M168.076 26.0053C175.179 26.0053 180.938 20.1838 180.938 13.0027C180.938 5.82149 175.179 0 168.076 0C160.973 0 155.215 5.82149 155.215 13.0027C155.215 20.1838 160.973 26.0053 168.076 26.0053Z" fill="#8C99CD"/>
<path d="M116.631 26.0053C123.734 26.0053 129.492 20.1838 129.492 13.0027C129.492 5.82149 123.734 0 116.631 0C109.528 0 103.77 5.82149 103.77 13.0027C103.77 20.1838 109.528 26.0053 116.631 26.0053Z" fill="#8C99CD"/>
<path d="M65.1855 26.0053C72.2887 26.0053 78.0469 20.1838 78.0469 13.0027C78.0469 5.82149 72.2887 0 65.1855 0C58.0824 0 52.3242 5.82149 52.3242 13.0027C52.3242 20.1838 58.0824 26.0053 65.1855 26.0053Z" fill="#8C99CD"/>
<path d="M13.7402 26.0053C20.8434 26.0053 26.6016 20.1838 26.6016 13.0027C26.6016 5.82149 20.8434 0 13.7402 0C6.63712 0 0.878906 5.82149 0.878906 13.0027C0.878906 20.1838 6.63712 26.0053 13.7402 26.0053Z" fill="#8C99CD"/>
<path d="M13.7402 78.017C20.8434 78.017 26.6016 72.1956 26.6016 65.0144C26.6016 57.8332 20.8434 52.0117 13.7402 52.0117C6.63712 52.0117 0.878906 57.8332 0.878906 65.0144C0.878906 72.1956 6.63712 78.017 13.7402 78.017Z" fill="#8C99CD"/>
<path d="M116.631 78.017C123.734 78.017 129.492 72.1956 129.492 65.0144C129.492 57.8332 123.734 52.0117 116.631 52.0117C109.528 52.0117 103.77 57.8332 103.77 65.0144C103.77 72.1956 109.528 78.017 116.631 78.017Z" fill="url(#paint0_linear_1034_2793)"/>
<path d="M168.076 26.0053C175.179 26.0053 180.938 20.1838 180.938 13.0027C180.938 5.82149 175.179 0 168.076 0C160.973 0 155.215 5.82149 155.215 13.0027C155.215 20.1838 160.973 26.0053 168.076 26.0053Z" fill="url(#paint1_linear_1034_2793)"/>
<path d="M116.631 26.0053C123.734 26.0053 129.492 20.1838 129.492 13.0027C129.492 5.82149 123.734 0 116.631 0C109.528 0 103.77 5.82149 103.77 13.0027C103.77 20.1838 109.528 26.0053 116.631 26.0053Z" fill="url(#paint2_linear_1034_2793)"/>
<path d="M65.1855 26.0053C72.2887 26.0053 78.0469 20.1838 78.0469 13.0027C78.0469 5.82149 72.2887 0 65.1855 0C58.0824 0 52.3242 5.82149 52.3242 13.0027C52.3242 20.1838 58.0824 26.0053 65.1855 26.0053Z" fill="url(#paint3_linear_1034_2793)"/>
<path d="M13.7402 26.0053C20.8434 26.0053 26.6016 20.1838 26.6016 13.0027C26.6016 5.82149 20.8434 0 13.7402 0C6.63712 0 0.878906 5.82149 0.878906 13.0027C0.878906 20.1838 6.63712 26.0053 13.7402 26.0053Z" fill="url(#paint4_linear_1034_2793)"/>
<path d="M13.7402 78.017C20.8434 78.017 26.6016 72.1956 26.6016 65.0144C26.6016 57.8332 20.8434 52.0117 13.7402 52.0117C6.63712 52.0117 0.878906 57.8332 0.878906 65.0144C0.878906 72.1956 6.63712 78.017 13.7402 78.017Z" fill="url(#paint5_linear_1034_2793)"/>
<path d="M13.7402 104.021C10.3292 104.021 7.05787 105.391 4.6459 107.83C2.23394 110.268 0.878906 113.576 0.878906 117.024L0.878906 169.035C0.878906 172.483 2.23394 175.791 4.6459 178.229C7.05787 180.668 10.3292 182.037 13.7402 182.037C17.1513 182.037 20.4226 180.668 22.8346 178.229C25.2465 175.791 26.6016 172.483 26.6016 169.035V117.024C26.6016 113.576 25.2465 110.268 22.8346 107.83C20.4226 105.391 17.1513 104.021 13.7402 104.021Z" fill="white"/>
<path d="M116.631 104.021C113.22 104.021 109.948 105.391 107.537 107.83C105.125 110.268 103.77 113.576 103.77 117.024V169.035C103.77 172.483 105.125 175.791 107.537 178.229C109.948 180.668 113.22 182.037 116.631 182.037C120.042 182.037 123.313 180.668 125.725 178.229C128.137 175.791 129.492 172.483 129.492 169.035V117.024C129.492 113.576 128.137 110.268 125.725 107.83C123.313 105.391 120.042 104.021 116.631 104.021Z" fill="white"/>
<path d="M65.1855 52.0117C61.7745 52.0117 58.5032 53.3816 56.0912 55.8201C53.6792 58.2586 52.3242 61.5659 52.3242 65.0144V169.036C52.3242 170.743 52.6569 172.434 53.3032 174.012C53.9496 175.589 54.8969 177.023 56.0912 178.23C57.2855 179.437 58.7033 180.395 60.2637 181.049C61.8241 181.702 63.4966 182.038 65.1855 182.038C66.8745 182.038 68.547 181.702 70.1074 181.049C71.6678 180.395 73.0856 179.437 74.2799 178.23C75.4742 177.023 76.4215 175.589 77.0679 174.012C77.7142 172.434 78.0469 170.743 78.0469 169.036V65.0144C78.0469 61.5659 76.6919 58.2586 74.2799 55.8201C71.8679 53.3816 68.5966 52.0117 65.1855 52.0117Z" fill="white"/>
<path d="M168.076 52.0117C164.665 52.0117 161.394 53.3816 158.982 55.8201C156.57 58.2586 155.215 61.5659 155.215 65.0144V169.036C155.215 172.484 156.57 175.792 158.982 178.23C161.394 180.668 164.665 182.038 168.076 182.038C171.487 182.038 174.759 180.668 177.171 178.23C179.582 175.792 180.938 172.484 180.938 169.036V65.0144C180.938 61.5659 179.582 58.2586 177.171 55.8201C174.759 53.3816 171.487 52.0117 168.076 52.0117Z" fill="white"/>
<defs>
<linearGradient id="paint0_linear_1034_2793" x1="0.878876" y1="39.0091" x2="180.938" y2="39.0091" gradientUnits="userSpaceOnUse">
<stop stop-color="#3479F3"/>
<stop offset="1" stop-color="#7FE4FF"/>
</linearGradient>
<linearGradient id="paint1_linear_1034_2793" x1="0.878832" y1="39.008" x2="180.938" y2="39.008" gradientUnits="userSpaceOnUse">
<stop stop-color="#3479F3"/>
<stop offset="1" stop-color="#7FE4FF"/>
</linearGradient>
<linearGradient id="paint2_linear_1034_2793" x1="0.878876" y1="39.008" x2="180.938" y2="39.008" gradientUnits="userSpaceOnUse">
<stop stop-color="#3479F3"/>
<stop offset="1" stop-color="#7FE4FF"/>
</linearGradient>
<linearGradient id="paint3_linear_1034_2793" x1="0.878891" y1="39.008" x2="180.938" y2="39.008" gradientUnits="userSpaceOnUse">
<stop stop-color="#3479F3"/>
<stop offset="1" stop-color="#7FE4FF"/>
</linearGradient>
<linearGradient id="paint4_linear_1034_2793" x1="0.878906" y1="39.008" x2="180.938" y2="39.008" gradientUnits="userSpaceOnUse">
<stop stop-color="#3479F3"/>
<stop offset="1" stop-color="#7FE4FF"/>
</linearGradient>
<linearGradient id="paint5_linear_1034_2793" x1="0.878906" y1="39.0091" x2="180.938" y2="39.0091" gradientUnits="userSpaceOnUse">
<stop stop-color="#3479F3"/>
<stop offset="1" stop-color="#7FE4FF"/>
</linearGradient>
</defs>
</svg>
