<svg width="115" height="112" viewBox="0 0 115 112" fill="none" xmlns="http://www.w3.org/2000/svg">
<path d="M66.8779 50.7632C68.4985 50.7697 69.8102 52.0901 69.8027 53.7117C69.7971 55.3325 68.477 56.6442 66.8534 56.6367C65.2343 56.6297 63.9231 55.3108 63.9281 53.6884C63.9359 52.0666 65.2558 50.7566 66.8776 50.7632M76.9371 56.2487C78.6131 57.3891 79.0491 59.6718 77.9065 61.3488C76.7678 63.0253 74.4838 63.4603 72.8088 62.3199C71.1327 61.1795 70.6975 58.897 71.8367 57.2195C72.9774 55.5435 75.2609 55.1083 76.9371 56.2487ZM83.5277 68.9657C84.4688 71.3186 83.3235 73.9881 80.9687 74.9285C78.6165 75.8683 75.9465 74.7245 75.0064 72.3707C74.0653 70.0161 75.2108 67.347 77.5647 66.4059C79.918 65.4663 82.5891 66.612 83.528 68.9657M81.4704 86.7494C80.8001 89.846 77.7454 91.813 74.6493 91.1424C71.5537 90.4704 69.5869 87.4178 70.2582 84.3227C70.9293 81.2264 73.9823 79.26 77.0786 79.9294C80.1745 80.6005 82.1403 83.6538 81.4704 86.7492M66.904 103.742C64.0462 106.482 59.5066 106.386 56.7676 103.525C54.0278 100.668 54.1234 96.1289 56.9826 93.3898C59.8426 90.6479 64.3815 90.7449 67.1217 93.6037C69.86 96.4629 69.7623 101.003 66.904 103.742ZM39.9343 111.169C35.0568 112.011 30.4196 108.737 29.5802 103.859C28.739 98.9823 32.0098 94.3459 36.8895 93.5052C41.7666 92.6641 46.403 95.9353 47.2449 100.816C48.0839 105.692 44.8131 110.33 39.9343 111.169ZM6.79282 100.014C1.14932 97.4759 -1.36712 90.8446 1.17085 85.2021C3.71004 79.56 10.342 77.0421 15.985 79.5813C21.6278 82.1191 24.1438 88.7513 21.6063 94.3945C19.0666 100.036 12.4351 102.553 6.79282 100.014ZM42.0642 65.2091C41.2581 63.8016 41.7466 62.0071 43.154 61.202C44.5618 60.3964 46.357 60.8839 47.1617 62.2925C47.9665 63.7005 47.4791 65.4939 46.0721 66.2997C44.6636 67.1048 42.87 66.6166 42.0639 65.2091M41.7828 53.7552C41.9323 51.7328 43.6935 50.215 45.7172 50.3635C47.7372 50.5135 49.2565 52.272 49.107 54.2947C48.9574 56.3171 47.1972 57.8347 45.1753 57.6857C43.1528 57.5364 41.635 55.7769 41.7828 53.7552ZM49.502 41.6888C51.0694 39.697 53.9548 39.3542 55.9463 40.9224C57.938 42.4893 58.2808 45.3761 56.7134 47.3666C55.1428 49.3581 52.2596 49.7004 50.2677 48.1328C48.2777 46.5642 47.9336 43.6795 49.502 41.6888ZM65.9332 34.5787C68.9499 33.6099 72.1795 35.2718 73.1472 38.2886C74.1137 41.3065 72.4539 44.5364 69.4362 45.5033C66.4211 46.4696 63.191 44.8085 62.2229 41.7918C61.2544 38.7756 62.9172 35.5457 65.9332 34.5787ZM87.9297 38.696C91.7339 39.8025 93.9196 43.7818 92.8111 47.5841C91.7068 51.3849 87.7277 53.5716 83.9247 52.4655C80.1242 51.359 77.937 47.3809 79.0433 43.5779C80.15 39.7757 84.1294 37.5902 87.9297 38.696ZM107.85 58.3386C111.017 62.1435 110.5 67.795 106.696 70.9615C102.892 74.1287 97.2412 73.6139 94.0735 69.8087C90.9055 66.005 91.423 60.354 95.2274 57.1851C99.0314 54.0194 104.682 54.5356 107.85 58.3386ZM114.76 92.6186C115.383 98.7733 110.898 104.271 104.742 104.894C98.5853 105.516 93.0889 101.032 92.4674 94.8757C91.8449 88.7179 96.3303 83.2229 102.487 82.6005C108.641 81.9787 114.136 86.462 114.76 92.6186ZM66.9819 79.4756C66.1666 80.877 64.3672 81.3524 62.9651 80.5352C61.5653 79.7192 61.0902 77.9205 61.9059 76.5206C62.7234 75.1189 64.5206 74.6428 65.9211 75.4602C67.3242 76.2757 67.7967 78.0737 66.9819 79.4756ZM57.2004 85.4438C55.3753 86.3268 53.1801 85.5606 52.3 83.7353C51.4161 81.9091 52.1815 79.7151 54.008 78.8338C55.8335 77.9532 58.0287 78.7172 58.9102 80.543C59.7908 82.3675 59.0271 84.5629 57.2004 85.4438ZM42.892 84.7956C40.3845 84.4328 38.6454 82.105 39.0071 79.5973C39.3704 77.0886 41.6955 75.348 44.2037 75.7116C46.7129 76.0745 48.4528 78.4017 48.0902 80.908C47.7278 83.4174 45.4005 85.158 42.892 84.7956ZM28.5194 74.119C26.1742 71.9906 25.9966 68.363 28.1255 66.0167C30.2544 63.6715 33.8827 63.4942 36.2291 65.6235C38.575 67.7519 38.7509 71.3798 36.6215 73.7269C34.4926 76.0723 30.8653 76.2479 28.5194 74.119ZM21.0861 53.0099C20.1431 49.1633 22.4961 45.2817 26.3426 44.3383C30.1879 43.396 34.0719 45.7477 35.0142 49.5935C35.9577 53.4398 33.6043 57.3218 29.7582 58.2656C25.9124 59.209 22.0291 56.8552 21.0861 53.0099ZM28.1391 25.9383C29.849 21.2933 35.0026 18.9154 39.6474 20.6256C44.2918 22.3374 46.6708 27.4888 44.96 32.1339C43.2491 36.7795 38.097 39.1578 33.4514 37.4467C28.8065 35.7356 26.428 30.5834 28.1388 25.9386M54.3714 2.81448C59.3905 -0.803429 66.3931 0.333592 70.0088 5.35221C73.6267 10.3725 72.4914 17.3756 67.4701 20.9923C62.452 24.6105 55.4501 23.4739 51.83 18.4531C48.2157 13.434 49.3503 6.43214 54.3714 2.81448Z" fill="white"/>
</svg>
