<svg width="184" height="184" viewBox="0 0 184 184" fill="none" xmlns="http://www.w3.org/2000/svg">
<path d="M91.2026 0.648594C83.7384 0.683277 76.6113 1.31979 70.3439 2.42998C51.8625 5.69475 48.5081 12.5255 48.5081 25.1287V41.7701H92.1634V47.3162H48.5081H32.1272C19.4394 47.3162 8.32122 54.9432 4.85291 69.4451C0.843985 86.0702 0.666498 96.4589 4.85291 113.817C7.95648 126.742 15.3686 135.946 28.0564 135.946H43.0679V115.999C43.0679 101.588 55.536 88.8709 70.3423 88.8709H113.949C126.088 88.8709 135.784 78.8763 135.784 66.6932V25.1222C135.784 13.2909 125.803 4.41001 113.949 2.42346C106.449 1.17503 98.6669 0.607887 91.201 0.642082L91.2026 0.648594ZM67.592 14.0317C72.1025 14.0317 75.7841 17.7752 75.7841 22.3769C75.7841 26.9622 72.1008 30.6715 67.592 30.6715C63.0669 30.6715 59.4 26.9639 59.4 22.3769C59.4 17.7752 63.0669 14.0317 67.592 14.0317Z" fill="url(#paint0_linear_1034_843)"/>
<path d="M141.224 47.3027V66.696C141.224 81.727 128.481 94.3774 113.95 94.3774H70.3436C58.3982 94.3774 48.5078 104.6 48.5078 116.555V158.126C48.5078 169.957 58.7972 176.917 70.3436 180.304C84.1631 184.368 97.4225 185.102 113.95 180.304C124.941 177.122 135.786 170.716 135.786 158.126V141.485H92.1793V135.939H135.786H157.621C170.309 135.939 175.044 127.089 179.457 113.81C184.015 100.134 183.821 86.9751 179.457 69.4381C176.321 56.8072 170.332 47.3093 157.621 47.3093H141.241L141.224 47.3027ZM116.702 152.59C121.227 152.59 124.894 156.298 124.894 160.884C124.894 165.486 121.227 169.23 116.702 169.23C112.191 169.23 108.51 165.486 108.51 160.884C108.51 156.299 112.193 152.59 116.702 152.59Z" fill="url(#paint1_linear_1034_843)"/>
<defs>
<linearGradient id="paint0_linear_1034_843" x1="1.7764" y1="0.645013" x2="102.484" y2="86.4303" gradientUnits="userSpaceOnUse">
<stop stop-color="#5A9FD4"/>
<stop offset="1" stop-color="#306998"/>
</linearGradient>
<linearGradient id="paint1_linear_1034_843" x1="115.672" y1="159.54" x2="79.486" y2="108.911" gradientUnits="userSpaceOnUse">
<stop stop-color="#FFD43B"/>
<stop offset="1" stop-color="#FFE873"/>
</linearGradient>
</defs>
</svg>
