<svg width="175" height="177" viewBox="0 0 175 177" fill="none" xmlns="http://www.w3.org/2000/svg">
<g clip-path="url(#clip0_1034_2875)">
<path d="M167.606 70.9561H111.738C110.817 70.9619 109.904 70.7842 109.052 70.4333C108.2 70.0823 107.426 69.5651 106.775 68.9117C106.124 68.2582 105.608 67.4816 105.259 66.6267C104.909 65.7718 104.732 64.8558 104.738 63.9317V7.86828C104.738 6.94788 104.556 6.03657 104.204 5.18678C103.852 4.337 103.335 3.56552 102.685 2.91674C102.034 2.26797 101.262 1.75471 100.413 1.4065C99.564 1.05829 98.6547 0.882003 97.7376 0.887791H76.8251C75.9079 0.882003 74.9986 1.05829 74.1496 1.4065C73.3006 1.75471 72.5286 2.26797 71.878 2.91674C71.2274 3.56552 70.7111 4.337 70.3587 5.18678C70.0064 6.03657 69.8251 6.94788 69.8251 7.86828V63.9317C69.8309 64.8558 69.6538 65.7718 69.3041 66.6267C68.9544 67.4816 68.439 68.2582 67.7878 68.9117C67.1366 69.5651 66.3626 70.0823 65.5107 70.4333C64.6588 70.7842 63.746 70.9619 62.8251 70.9561H41.9126C40.9917 70.9619 40.0789 70.7842 39.227 70.4333C38.3751 70.0823 37.6011 69.5651 36.9499 68.9117C36.2987 68.2582 35.7833 67.4816 35.4336 66.6267C35.0839 65.7718 34.9068 64.8558 34.9126 63.9317V7.86828C34.9184 6.94419 34.7413 6.02815 34.3916 5.17328C34.0419 4.31841 33.5265 3.54173 32.8753 2.88829C32.2241 2.23485 31.4502 1.71766 30.5983 1.36671C29.7464 1.01577 28.8335 0.838059 27.9126 0.843889H6.95638C6.03918 0.843871 5.13103 1.02587 4.2842 1.37942C3.43737 1.73296 2.66856 2.25107 2.02204 2.90392C1.37552 3.55678 0.864042 4.33149 0.517041 5.18348C0.170041 6.03546 -0.00563009 6.9479 0.000138464 7.86828V169.078C-0.00567165 170.002 0.171422 170.918 0.521147 171.773C0.870872 172.628 1.38627 173.405 2.03744 174.058C2.68861 174.711 3.46259 175.229 4.31449 175.58C5.16639 175.931 6.07926 176.108 7.00013 176.102H167.606C168.527 176.108 169.44 175.931 170.292 175.58C171.144 175.229 171.918 174.711 172.569 174.058C173.22 173.405 173.736 172.628 174.085 171.773C174.435 170.918 174.612 170.002 174.606 169.078V78.1122C174.63 77.1771 174.466 76.2468 174.124 75.3766C173.782 74.5064 173.269 73.714 172.616 73.0465C171.964 72.379 171.184 71.85 170.323 71.4909C169.462 71.1318 168.538 70.9499 167.606 70.9561ZM139.519 130.488C139.525 131.869 139.258 133.239 138.735 134.517C138.213 135.795 137.443 136.957 136.472 137.936C135.5 138.915 134.346 139.691 133.074 140.221C131.803 140.752 130.439 141.024 129.063 141.024H115.063C113.686 141.024 112.322 140.752 111.051 140.221C109.78 139.691 108.625 138.915 107.653 137.936C106.682 136.957 105.913 135.795 105.39 134.517C104.867 133.239 104.601 131.869 104.606 130.488V116.483C104.601 115.101 104.867 113.732 105.39 112.454C105.913 111.176 106.682 110.014 107.653 109.035C108.625 108.056 109.78 107.279 111.051 106.749C112.322 106.219 113.686 105.946 115.063 105.946H129.063C130.439 105.946 131.803 106.219 133.074 106.749C134.346 107.279 135.5 108.056 136.472 109.035C137.443 110.014 138.213 111.176 138.735 112.454C139.258 113.732 139.525 115.101 139.519 116.483V130.488Z" fill="#FF6600"/>
</g>
<defs>
<clipPath id="clip0_1034_2875">
<rect width="175" height="177" fill="white"/>
</clipPath>
</defs>
</svg>
