<svg width="199" height="184" viewBox="0 0 199 184" fill="none" xmlns="http://www.w3.org/2000/svg">
<g clip-path="url(#clip0_1034_2887)">
<path d="M190.482 141.228C179.909 147.172 125.109 171.486 113.318 178.16C101.527 184.834 95.1914 184.644 85.9589 179.898C76.7263 175.152 18.5425 149.625 8.02393 144.207C2.77141 141.506 0.00976562 139.228 0.00976562 137.066V115.439C0.00976562 115.439 75.9276 97.6669 88.179 92.8917C100.43 88.1164 104.668 87.9703 115.105 92.0884C125.542 96.2065 187.896 108.356 198.198 112.416V133.707C198.198 135.927 195.829 138.088 190.428 141.199L190.482 141.228Z" fill="#A32422"/>
<path d="M190.482 119.616C179.91 125.559 125.11 149.874 113.318 156.43C101.527 162.987 95.1919 162.914 85.9593 158.183C76.7268 153.451 18.543 127.998 8.02443 122.594C-2.49415 117.191 -2.71073 113.438 7.60478 109.087C17.9203 104.735 75.9281 80.2014 88.1795 75.4992C100.431 70.797 104.668 70.5927 115.105 74.7254C125.543 78.8581 180.004 102.238 190.306 106.297C200.608 110.357 201.014 113.73 190.428 119.63L190.482 119.616Z" fill="#DC382C"/>
<path d="M190.482 105.991C179.909 111.935 125.109 136.249 113.318 142.806C101.527 149.363 95.1914 149.29 85.9589 144.558C76.7263 139.827 18.5425 114.403 8.02393 108.97C2.77141 106.269 0.00976562 103.976 0.00976562 101.815V80.2164C0.00976562 80.2164 75.9276 62.4445 88.179 57.64C100.43 52.8356 104.668 52.7334 115.105 56.8661C125.542 60.9988 187.896 73.1048 198.198 77.1791V98.5581C198.306 100.705 195.883 102.939 190.482 105.991Z" fill="#A32422"/>
<path d="M190.482 84.3787C179.91 90.3368 125.11 114.622 113.318 121.179C101.527 127.735 95.1919 127.692 85.9593 122.931C76.7268 118.17 18.543 92.7754 8.02443 87.3576C-2.49415 81.9398 -2.71073 78.216 7.60478 73.8643C17.9203 69.5125 75.9281 44.9792 88.1795 40.277C100.431 35.5747 104.668 35.3704 115.105 39.4739C125.543 43.5774 180.004 67.1031 190.306 71.0606C200.608 75.0181 201.014 78.479 190.428 84.3933L190.482 84.3787Z" fill="#DC382C"/>
<path d="M190.482 69.4392C179.909 75.3973 125.109 99.7116 113.318 106.268C101.527 112.825 95.1914 112.752 85.9589 107.991C76.7263 103.231 18.5425 77.8359 8.02393 72.4181C2.77141 69.7311 0.00976562 67.4384 0.00976562 65.2772V43.6646C0.00976562 43.6646 75.9276 25.8778 88.179 21.1026C100.43 16.3273 104.668 16.196 115.105 20.2995C125.542 24.403 187.896 36.5673 198.198 40.6416V61.9478C198.306 64.1675 195.883 66.431 190.482 69.4392Z" fill="#A32422"/>
<path d="M190.482 47.841C179.91 53.6823 125.11 78.1571 113.318 84.6409C101.527 91.1247 95.1919 91.1248 85.9593 86.3934C76.7268 81.662 18.543 56.2232 8.02443 50.8201C-2.49415 45.4169 -2.71073 41.6639 7.60478 37.2975C17.9203 32.9312 75.9281 8.41248 88.1795 3.71026C100.431 -0.991957 104.668 -1.19644 115.105 2.93625C125.543 7.06895 180.004 30.4486 190.306 34.5229C200.608 38.5972 201.014 41.9413 190.428 47.8556L190.482 47.841Z" fill="#DC382C"/>
<path d="M190.482 141.228C179.909 147.172 125.109 171.486 113.318 178.16C101.527 184.834 95.1914 184.644 85.9589 179.898C76.7263 175.152 18.5425 149.625 8.02393 144.207C2.77141 141.506 0.00976562 139.228 0.00976562 137.066V115.439C0.00976562 115.439 75.9276 97.6669 88.179 92.8917C100.43 88.1164 104.668 87.9703 115.105 92.0884C125.542 96.2065 187.896 108.356 198.198 112.416V133.707C198.198 135.927 195.829 138.088 190.428 141.199L190.482 141.228Z" fill="#A32422"/>
<path d="M190.482 119.616C179.91 125.559 125.11 149.874 113.318 156.43C101.527 162.987 95.1919 162.914 85.9593 158.183C76.7268 153.451 18.543 127.998 8.02443 122.594C-2.49415 117.191 -2.71073 113.438 7.60478 109.087C17.9203 104.735 75.9281 80.2014 88.1795 75.4992C100.431 70.797 104.668 70.5927 115.105 74.7254C125.543 78.8581 180.004 102.238 190.306 106.297C200.608 110.357 201.014 113.73 190.428 119.63L190.482 119.616Z" fill="#DC382C"/>
<path d="M190.482 105.991C179.909 111.935 125.109 136.249 113.318 142.806C101.527 149.363 95.1914 149.29 85.9589 144.558C76.7263 139.827 18.5425 114.403 8.02393 108.97C2.77141 106.269 0.00976562 103.976 0.00976562 101.815V80.2164C0.00976562 80.2164 75.9276 62.4445 88.179 57.64C100.43 52.8356 104.668 52.7334 115.105 56.8661C125.542 60.9988 187.896 73.1048 198.198 77.1791V98.5581C198.306 100.705 195.883 102.939 190.482 105.991Z" fill="#A32422"/>
<path d="M190.482 84.3787C179.91 90.3368 125.11 114.622 113.318 121.179C101.527 127.735 95.1919 127.692 85.9593 122.931C76.7268 118.17 18.543 92.7754 8.02443 87.3576C-2.49415 81.9398 -2.71073 78.216 7.60478 73.8643C17.9203 69.5125 75.9281 44.9792 88.1795 40.277C100.431 35.5747 104.668 35.3704 115.105 39.4739C125.543 43.5774 180.004 67.1031 190.306 71.0606C200.608 75.0181 201.014 78.479 190.428 84.3933L190.482 84.3787Z" fill="#DC382C"/>
<path d="M190.482 69.4392C179.909 75.3973 125.109 99.7116 113.318 106.268C101.527 112.825 95.1914 112.752 85.9589 107.991C76.7263 103.231 18.5425 77.8359 8.02393 72.4181C2.77141 69.7311 0.00976562 67.4384 0.00976562 65.2772V43.6646C0.00976562 43.6646 75.9276 25.8778 88.179 21.1026C100.43 16.3273 104.668 16.196 115.105 20.2995C125.542 24.403 187.896 36.5673 198.198 40.6416V61.9478C198.306 64.1675 195.883 66.431 190.482 69.4392Z" fill="#A32422"/>
<path d="M190.482 47.841C179.91 53.6823 125.11 78.1571 113.318 84.6409C101.527 91.1247 95.1919 91.1248 85.9593 86.3934C76.7268 81.662 18.543 56.2232 8.02443 50.8201C-2.49415 45.4169 -2.71073 41.6639 7.60478 37.2975C17.9203 32.9312 75.9281 8.41248 88.1795 3.71026C100.431 -0.991957 104.668 -1.19644 115.105 2.93625C125.543 7.06895 180.004 30.4486 190.306 34.5229C200.608 38.5972 201.014 41.9413 190.428 47.8556L190.482 47.841Z" fill="#DC382C"/>
<path d="M102.271 17.1303L115.348 12.5011L111.802 21.6426L125.109 27.0166L107.957 28.9442L104.099 38.9328L97.8987 27.7906L78.0664 25.863L92.8763 20.1093L88.4225 11.2598L102.271 17.1303Z" fill="white"/>
<path d="M103.098 75.4408L71.041 61.0858L116.96 53.4922L103.098 75.4408Z" fill="white"/>
<path d="M58.6545 32.5664C72.1919 32.5664 83.1843 37.1664 83.1843 42.7886C83.1843 48.4109 72.1649 53.0109 58.6545 53.0109C45.1442 53.0109 34.0977 48.4109 34.0977 42.7886C34.0977 37.1664 45.1036 32.5664 58.6545 32.5664Z" fill="white"/>
<path d="M145.43 29.748L172.599 41.3284L145.457 52.9087L145.43 29.748Z" fill="#741113"/>
<path d="M145.43 29.748L145.458 52.9087L142.506 54.15L115.35 42.5696L145.43 29.748Z" fill="#AC2724"/>
</g>
<defs>
<clipPath id="clip0_1034_2887">
<rect width="199" height="184" fill="white"/>
</clipPath>
</defs>
</svg>
