<svg width="357" height="184" viewBox="0 0 357 184" fill="none" xmlns="http://www.w3.org/2000/svg">
<path fill-rule="evenodd" clip-rule="evenodd" d="M326.469 93.2491C326.164 92.6027 326.022 92.2716 325.853 91.9616C321.382 83.585 316.921 75.1978 312.413 66.8423C311.955 66.0067 312.013 65.5075 312.634 64.7928C319.746 56.6053 326.821 48.3864 333.907 40.1727C334.154 39.8889 334.38 39.5789 334.475 39.0691C332.403 39.5999 330.33 40.1254 328.263 40.6667C319.667 42.9106 311.071 45.1493 302.486 47.4195C301.687 47.6297 301.324 47.4037 300.924 46.7468C296.047 38.717 291.139 30.703 286.237 22.689C285.984 22.2686 285.711 21.864 285.174 21.5171C284.78 23.656 284.374 25.7948 283.99 27.9336L279.903 50.604C279.756 51.4238 279.551 52.2331 279.482 53.0582C279.409 53.8359 279.009 54.125 278.288 54.3457C268.162 57.4777 258.046 60.6413 247.925 63.8048C247.483 63.9414 247.046 64.1201 246.573 64.5458L271.528 74.3202C271.223 74.5567 271.023 74.7407 270.802 74.8878C265.626 78.188 260.439 81.4724 255.284 84.7884C254.663 85.1825 254.174 85.2403 253.48 84.9303C247.299 82.1924 241.091 79.5018 234.905 76.7744C232.122 75.5499 229.624 73.9261 227.677 71.5823C223.274 66.2747 224.142 60.2419 230.008 56.5528C231.928 55.3441 234.111 54.4455 236.278 53.7466C246.199 50.562 256.157 47.493 266.105 44.4083C266.941 44.1508 267.331 43.7829 267.483 42.8948C268.809 35.3275 270.187 27.7759 271.565 20.2191C272.307 16.1832 272.702 12.037 274.695 8.34263C275.463 6.91325 276.379 5.52065 277.473 4.32774C281.418 0.00806427 286.936 -0.160103 291.113 3.95988C292.523 5.34723 293.733 6.98682 294.785 8.66319C299.383 16.0571 303.912 23.4983 308.41 30.9448C308.946 31.8329 309.425 32.0063 310.409 31.7488C321.508 28.8165 332.618 25.9314 343.723 23.0411C346.017 22.442 348.331 22.2266 350.683 22.6575C355.806 23.6034 358.047 27.4396 356.311 32.3163C355.522 34.534 354.16 36.4153 352.629 38.181C344.88 47.1672 337.142 56.1534 329.367 65.1133C328.731 65.849 328.715 66.3746 329.157 67.1943C333.797 75.8127 338.394 84.4468 343.013 93.0757C344.118 95.1409 344.959 97.2797 344.986 99.655C345.038 105.052 341.04 109.466 335.596 110.249C332.545 110.691 329.714 110.05 326.863 109.182C319.904 107.059 312.934 104.978 305.958 102.913C305.311 102.719 305.064 102.472 304.953 101.783C304.149 96.9486 303.275 92.1245 302.428 87.2951C302.407 87.1637 302.444 87.0218 302.465 86.7222L326.469 93.2491Z" fill="#E25A1C"/>
<path fill-rule="evenodd" clip-rule="evenodd" d="M312.908 163.675C306.633 163.665 300.357 163.633 294.076 163.66C293.25 163.66 292.782 163.423 292.319 162.73C284.891 151.578 277.432 140.453 269.972 129.323C269.736 128.966 269.483 128.624 269.057 128.03L264.312 163.591H247.878C248.073 162.015 248.241 160.491 248.441 158.967C250.046 146.901 251.655 134.825 253.27 122.759C254.806 111.224 256.337 99.6895 257.9 88.1546C257.947 87.813 258.178 87.3769 258.462 87.1929C264.117 83.5669 269.794 79.9619 275.464 76.357C275.549 76.3044 275.664 76.2992 275.959 76.2151L270.835 114.703L271.035 114.84L297.932 85.464L298.647 89.521C299.284 93.189 299.894 96.8571 300.578 100.515C300.715 101.25 300.52 101.713 300.02 102.222C294.265 108.161 288.526 114.115 282.787 120.069L282.014 120.904C282.198 121.193 282.35 121.472 282.54 121.729L312.246 162.793C312.424 163.045 312.682 163.239 312.908 163.46V163.675ZM118.124 128.083C117.871 126.822 117.692 124.967 117.124 123.238C114.373 114.871 105.656 110.284 96.64 112.354C86.7504 114.619 79.6803 122.286 78.6598 132.229C77.9023 139.586 81.9212 146.675 89.3964 149.334C95.4196 151.478 101.217 150.58 106.598 147.4C113.742 143.181 117.614 136.917 118.124 128.083ZM74.6828 159.177C74.1936 162.777 73.7254 166.166 73.273 169.566C72.6733 174.075 72.0737 178.589 71.495 183.104C71.4266 183.629 71.2635 183.866 70.6901 183.86C66.1767 183.845 61.6632 183.845 57.1497 183.839C57.0445 183.839 56.9446 183.787 56.7026 183.718C56.9709 181.585 57.2391 179.451 57.5232 177.318C58.5227 169.829 59.5117 162.346 60.5217 154.863C61.679 146.307 62.5943 137.71 64.0725 129.207C66.6975 114.157 79.654 101.182 94.8673 97.9501C103.684 96.0793 112.122 96.9464 119.818 101.839C127.498 106.71 131.901 113.784 132.906 122.686C134.326 135.266 129.623 145.714 120.554 154.353C114.599 160.028 107.471 163.633 99.2492 164.853C90.7799 166.109 82.8155 164.716 75.6718 159.797C75.4088 159.619 75.13 159.461 74.6828 159.177ZM67.3235 87.6501L52.4837 98.5334C51.6946 97.309 50.9844 96.0845 50.1585 94.9442C48.0333 92.0171 45.3926 89.831 41.5472 89.563C38.3541 89.3423 35.6239 90.3828 33.446 92.7003C31.4997 94.776 31.2472 97.7294 33.0673 100.073C35.0663 102.648 37.2546 105.097 39.4903 107.488C43.199 111.445 47.0759 115.255 50.7582 119.238C54.1092 122.859 56.7762 126.921 57.6021 131.872C58.5858 137.757 57.3917 143.365 54.5668 148.536C49.3379 158.11 41.1 163.67 30.2319 165.404C25.4291 166.172 20.6421 166.019 15.955 164.658C9.73712 162.856 5.41828 158.846 2.63023 153.171C1.64653 151.174 0.894279 149.051 0 146.901L16.097 138.414C16.2811 138.856 16.4127 139.224 16.5863 139.57C17.5016 141.373 18.2538 143.286 19.3848 144.946C22.7463 149.87 28.1698 151.368 33.6828 148.94C35.0926 148.31 36.455 147.427 37.6176 146.418C41.1684 143.312 41.8312 138.992 39.2063 135.088C37.6965 132.844 35.808 130.831 33.9721 128.818C29.5796 124.015 25.0083 119.359 20.7157 114.472C17.7646 111.098 15.7551 107.168 15.1186 102.648C14.4242 97.7189 15.4237 93.0681 18.0276 88.9166C24.498 78.6009 33.9142 73.2302 46.3552 73.6769C53.4463 73.9291 59.0961 77.1978 63.4833 82.6263C64.7774 84.2343 65.9978 85.9054 67.3235 87.6501ZM187.525 143.044C186.704 149.261 185.926 155.167 185.116 161.069C185.074 161.368 184.837 161.773 184.579 161.894C172.328 167.48 156.199 166.702 146.141 155.446C140.733 149.403 138.466 142.224 138.808 134.236C139.592 115.754 155.142 99.6212 173.743 97.3668C184.611 96.0478 194.143 98.9433 201.502 107.257C206.515 112.922 208.835 119.69 208.493 127.158C208.267 132.087 207.483 137.001 206.863 141.909C205.979 148.861 205.011 155.809 204.08 162.756C204.048 163.003 203.996 163.25 203.943 163.56H189.287C189.482 161.962 189.661 160.402 189.866 158.841C190.929 150.816 192.096 142.802 193.022 134.762C193.601 129.759 193.238 124.788 190.918 120.153C188.446 115.218 184.295 112.612 178.845 112.044C167.562 110.867 156.825 118.592 154.421 129.533C152.832 136.754 155.336 143.675 161.175 147.506C166.862 151.237 172.959 151.247 179.156 148.825C182.301 147.6 184.979 145.661 187.525 143.044ZM249.23 98.7699L247.231 113.736C244.128 113.736 241.092 113.721 238.057 113.747C235.595 113.763 233.349 115.329 232.607 117.594C232.318 118.476 232.213 119.428 232.087 120.358C230.545 131.851 229.02 143.344 227.489 154.842C227.1 157.737 226.726 160.638 226.337 163.581H211.087C211.371 161.374 211.639 159.23 211.928 157.096C212.917 149.644 213.906 142.198 214.911 134.751C215.779 128.309 216.552 121.85 217.578 115.429C218.946 106.821 227.636 99.1745 236.453 98.8014C240.661 98.6175 244.88 98.7699 249.23 98.7699Z" fill="white"/>
<path d="M330.884 163.579V157.236H330.853L328.328 163.579H327.518L324.993 157.236H324.956V163.574H323.683V155.975H325.645L327.949 161.75L330.211 155.975H332.157V163.579H330.884ZM319.695 156.994V163.579H318.422V156.994H316.002V155.98H322.105V156.994H319.695ZM87.7561 76.9753H91.5437L90.6494 71.3366L87.7561 76.9753ZM92.1328 80.6223H85.8413L83.8423 84.4796H79.3867L89.2133 66.3863H93.5111L96.8567 84.4796H92.7273L92.1328 80.6223ZM114.642 70.0333H112.401L111.649 74.2059H113.885C115.237 74.2059 116.32 73.3335 116.32 71.6834C116.32 70.5903 115.637 70.0333 114.642 70.0333ZM109.214 66.3863H115.105C118.183 66.3863 120.339 68.1993 120.339 71.3103C120.339 75.2201 117.53 77.8529 113.538 77.8529H110.997L109.808 84.4743H105.978L109.214 66.3863ZM133.364 76.9753H137.147L136.252 71.3366L133.364 76.9753ZM137.736 80.6223H131.45L129.451 84.4796H124.995L134.822 66.3863H139.114L142.465 84.4796H138.33L137.736 80.6223ZM162.613 83.8384C161.318 84.4217 159.888 84.7738 158.457 84.7738C153.596 84.7738 150.54 81.1793 150.54 76.681C150.54 70.9372 155.458 66.092 161.292 66.092C162.749 66.092 164.07 66.4388 165.148 67.0221L164.612 71.3629C163.801 70.4853 162.507 69.8704 160.882 69.8704C157.536 69.8704 154.569 72.8553 154.569 76.3079C154.569 78.9459 156.242 80.9954 158.883 80.9954C160.508 80.9954 162.071 80.3806 163.123 79.5293L162.613 83.8384ZM186.043 77.1907H178.052L176.753 84.4796H172.923L176.158 66.3863H179.993L178.699 73.5437H186.69L187.984 66.3863H191.819L188.583 84.4796H184.749L186.043 77.1907ZM200.104 84.4796L203.344 66.3863H213.523L212.876 70.0333H206.527L205.885 73.5437H211.714L211.067 77.1907H205.233L204.586 80.8325H210.93L210.283 84.4796H200.104Z" fill="white"/>
</svg>
