<svg width="174" height="184" viewBox="0 0 174 184" fill="none" xmlns="http://www.w3.org/2000/svg">
<g clip-path="url(#clip0_1034_2850)">
<path d="M73.8547 37.3149L43.1836 21.833L9.52344 38.6321L41.0239 54.451L73.8547 37.3149Z" fill="#4DABCF"/>
<path d="M87.9117 44.4102L120.069 60.6416L86.7055 77.3962L55.1562 61.5507L87.9117 44.4102Z" fill="#4DABCF"/>
<path d="M130.86 22.0674L163.895 38.6314L134.35 53.4702L102.127 37.2167L130.86 22.0674Z" fill="#4DABCF"/>
<path d="M116.641 14.9323L86.901 0.0224609L57.4805 14.7017L88.125 30.157L116.641 14.9323Z" fill="#4DABCF"/>
<path d="M93.3887 142.995V183.578L129.417 165.6L129.377 124.999L93.3887 142.995Z" fill="#4DABCF"/>
<path d="M129.364 110.83L129.324 70.6553L93.3887 88.5187V128.707L129.364 110.83Z" fill="#4DABCF"/>
<path d="M172.618 103.3V144.042L141.889 159.378L141.867 118.822L172.618 103.3Z" fill="#4DABCF"/>
<path d="M172.617 89.0559V49.1338L141.83 64.4383L141.857 104.693L172.617 89.0559Z" fill="#4DABCF"/>
<path d="M80.6705 88.5186L56.4032 76.3185V129.053C56.4032 129.053 26.7255 65.9055 23.9759 60.2334C23.6211 59.5017 22.1621 58.699 21.7895 58.5038C16.4678 55.7099 0.875 47.8115 0.875 47.8115V140.978L22.4459 152.508V103.81C22.4459 103.81 51.8088 160.234 52.1059 160.85C52.403 161.467 55.3522 167.414 58.5009 169.503C62.6962 172.279 80.6749 183.091 80.6749 183.091L80.6705 88.5186Z" fill="#4D77CF"/>
</g>
<defs>
<clipPath id="clip0_1034_2850">
<rect width="172.579" height="184" fill="white" transform="translate(0.710938)"/>
</clipPath>
</defs>
</svg>
