<svg width="196" height="184" viewBox="0 0 196 184" fill="none" xmlns="http://www.w3.org/2000/svg">
<g clip-path="url(#clip0_1034_850)">
<path d="M56.3789 59.7227L84.1461 70.4952V105.246L56.3789 94.4828V59.7227Z" fill="#E9E9FF" stroke="#CCCCCC" stroke-width="0.58364" stroke-linejoin="bevel"/>
<path d="M28.209 70.6531V105.413L56.3772 94.4828V59.7227L28.209 70.6531Z" fill="#353564" stroke="#CCCCCC" stroke-width="0.58364" stroke-linejoin="bevel"/>
<path d="M28.2109 105.414L55.9693 116.177L84.1464 105.247L56.3792 94.4834L28.2109 105.414Z" fill="#AFAFDE" stroke="#CCCCCC" stroke-width="0.58364" stroke-linejoin="bevel"/>
<path d="M28.209 70.6531L55.9674 81.4164L84.1444 70.4859L56.3772 59.7227L28.209 70.6531Z" fill="#F7F7F4" stroke="#CCCCCC" stroke-width="0.58364" stroke-linejoin="bevel"/>
<path d="M55.9688 81.4158V116.176L84.1458 105.245V70.4854L55.9688 81.4158Z" fill="white" stroke="#CCCCCC" stroke-width="0.58364" stroke-linejoin="bevel"/>
<path d="M28.21 70.6523L55.9684 81.4156V116.176L28.2012 105.403L28.21 70.6523Z" fill="#EFEEEA" stroke="#CCCCCC" stroke-width="0.58364" stroke-linejoin="bevel"/>
<path d="M84.2637 35.4189L112.031 46.1915V80.9423L84.2637 70.1791V35.4189Z" fill="#E9E9FF" stroke="#CCCCCC" stroke-width="0.58364" stroke-linejoin="bevel"/>
<path d="M56.0938 46.3494V81.1095L84.262 70.1791V35.4189L56.0938 46.3494Z" fill="#353564" stroke="#CCCCCC" stroke-width="0.58364" stroke-linejoin="bevel"/>
<path d="M56.0938 81.1092L83.8521 91.8724L112.029 80.942L84.262 70.1787L56.0938 81.1092Z" fill="#AFAFDE" stroke="#CCCCCC" stroke-width="0.58364" stroke-linejoin="bevel"/>
<path d="M56.0938 46.3494L83.8521 57.1127L112.029 46.1822L84.262 35.4189L56.0938 46.3494Z" fill="#F7F7F4" stroke="#CCCCCC" stroke-width="0.58364" stroke-linejoin="bevel"/>
<path d="M83.8535 57.1121V91.8722L112.031 80.9418V46.1816L83.8535 57.1121Z" fill="white" stroke="#CCCCCC" stroke-width="0.58364" stroke-linejoin="bevel"/>
<path d="M56.0947 46.3486L83.8531 57.1119V91.872L56.0859 81.0994L56.0947 46.3486Z" fill="#EFEEEA" stroke="#CCCCCC" stroke-width="0.58364" stroke-linejoin="bevel"/>
<path d="M28.4941 105.628L56.2613 116.401V151.151L28.4941 140.388V105.628Z" fill="#E9E9FF" stroke="#CCCCCC" stroke-width="0.58364" stroke-linejoin="bevel"/>
<path d="M0.324219 116.558V151.319L28.4925 140.388V105.628L0.324219 116.558Z" fill="#353564" stroke="#CCCCCC" stroke-width="0.58364" stroke-linejoin="bevel"/>
<path d="M0.324219 151.319L28.0826 162.082L56.2597 151.152L28.4925 140.389L0.324219 151.319Z" fill="#AFAFDE" stroke="#CCCCCC" stroke-width="0.58364" stroke-linejoin="bevel"/>
<path d="M0.324219 116.558L28.0826 127.322L56.2597 116.391L28.4925 105.628L0.324219 116.558Z" fill="#F7F7F4" stroke="#CCCCCC" stroke-width="0.58364" stroke-linejoin="bevel"/>
<path d="M28.084 127.321V162.081L56.261 151.151V116.391L28.084 127.321Z" fill="white" stroke="#CCCCCC" stroke-width="0.58364" stroke-linejoin="bevel"/>
<path d="M0.325186 116.558L28.0836 127.321V162.081L0.316406 151.308L0.325186 116.558Z" fill="#EFEEEA" stroke="#CCCCCC" stroke-width="0.58364" stroke-linejoin="bevel"/>
<path d="M56.3789 116.43L84.1461 127.202V161.953L56.3789 151.19V116.43Z" fill="#E9E9FF" stroke="#CCCCCC" stroke-width="0.58364" stroke-linejoin="bevel"/>
<path d="M28.2109 127.36V162.12L56.3792 151.19V116.43L28.2109 127.36Z" fill="#353564" stroke="#CCCCCC" stroke-width="0.58364" stroke-linejoin="bevel"/>
<path d="M28.2109 162.121L55.9693 172.884L84.1464 161.954L56.3792 151.19L28.2109 162.121Z" fill="#AFAFDE" stroke="#CCCCCC" stroke-width="0.58364" stroke-linejoin="bevel"/>
<path d="M28.2109 127.36L55.9693 138.123L84.1464 127.193L56.3792 116.43L28.2109 127.36Z" fill="#F7F7F4" stroke="#CCCCCC" stroke-width="0.58364" stroke-linejoin="bevel"/>
<path d="M55.9688 138.123V172.883L84.1458 161.953V127.192L55.9688 138.123Z" fill="white" stroke="#CCCCCC" stroke-width="0.58364" stroke-linejoin="bevel"/>
<path d="M28.21 127.36L55.9684 138.124V172.884L28.2012 162.111L28.21 127.36Z" fill="#EFEEEA" stroke="#CCCCCC" stroke-width="0.58364" stroke-linejoin="bevel"/>
<path d="M56.3789 81.3242L84.1461 92.0968V126.848L56.3789 116.084V81.3242Z" fill="#E9E9FF" stroke="#CCCCCC" stroke-width="0.58364" stroke-linejoin="bevel"/>
<path d="M28.209 92.2546V127.015L56.3772 116.084V81.3242L28.209 92.2546Z" fill="#353564" stroke="#CCCCCC" stroke-width="0.58364" stroke-linejoin="bevel"/>
<path d="M28.2109 127.014L55.9693 137.778L84.1464 126.847L56.3792 116.084L28.2109 127.014Z" fill="#AFAFDE" stroke="#CCCCCC" stroke-width="0.58364" stroke-linejoin="bevel"/>
<path d="M28.209 92.2547L55.9674 103.018L84.1444 92.0875L56.3772 81.3242L28.209 92.2547Z" fill="#F7F7F4" stroke="#CCCCCC" stroke-width="0.58364" stroke-linejoin="bevel"/>
<path d="M55.9688 103.016V137.777L84.1458 126.846V92.0859L55.9688 103.016Z" fill="white" stroke="#CCCCCC" stroke-width="0.58364" stroke-linejoin="bevel"/>
<path d="M28.21 92.2539L55.9684 103.017V137.777L28.2012 127.005L28.21 92.2539Z" fill="#EFEEEA" stroke="#CCCCCC" stroke-width="0.58364" stroke-linejoin="bevel"/>
<path d="M167.922 94.8252L195.689 105.598V140.349L167.922 129.585V94.8252Z" fill="#E9E9FF" stroke="#CCCCCC" stroke-width="0.58364" stroke-linejoin="bevel"/>
<path d="M139.752 105.756V140.516L167.92 129.585V94.8252L139.752 105.756Z" fill="#353564" stroke="#CCCCCC" stroke-width="0.58364" stroke-linejoin="bevel"/>
<path d="M139.752 140.515L167.51 151.279L195.687 140.348L167.92 129.585L139.752 140.515Z" fill="#AFAFDE" stroke="#CCCCCC" stroke-width="0.58364" stroke-linejoin="bevel"/>
<path d="M139.752 105.756L167.51 116.519L195.687 105.588L167.92 94.8252L139.752 105.756Z" fill="#F7F7F4" stroke="#CCCCCC" stroke-width="0.58364" stroke-linejoin="bevel"/>
<path d="M167.512 116.518V151.278L195.689 140.348V105.588L167.512 116.518Z" fill="white" stroke="#CCCCCC" stroke-width="0.58364" stroke-linejoin="bevel"/>
<path d="M139.753 105.755L167.511 116.518V151.278L139.744 140.506L139.753 105.755Z" fill="#EFEEEA" stroke="#CCCCCC" stroke-width="0.58364" stroke-linejoin="bevel"/>
<path d="M140.025 105.623L167.793 116.396V151.146L140.025 140.383V105.623Z" fill="#E9E9FF" stroke="#CCCCCC" stroke-width="0.583639" stroke-linejoin="bevel"/>
<path d="M111.855 116.553V151.314L140.024 140.383V105.623L111.855 116.553Z" fill="#353564" stroke="#CCCCCC" stroke-width="0.583639" stroke-linejoin="bevel"/>
<path d="M111.855 151.314L139.614 162.077L167.791 151.147L140.024 140.384L111.855 151.314Z" fill="#AFAFDE" stroke="#CCCCCC" stroke-width="0.583639" stroke-linejoin="bevel"/>
<path d="M111.855 116.553L139.614 127.317L167.791 116.386L140.024 105.623L111.855 116.553Z" fill="#F7F7F4" stroke="#CCCCCC" stroke-width="0.583639" stroke-linejoin="bevel"/>
<path d="M139.615 127.316V162.076L167.792 151.146V116.386L139.615 127.316Z" fill="#FFD242" stroke="#CCCCCC" stroke-width="0.583639" stroke-linejoin="bevel"/>
<path d="M111.856 116.554L139.615 127.317V162.077L111.848 151.304L111.856 116.554Z" fill="#EFEEEA" stroke="#CCCCCC" stroke-width="0.583639" stroke-linejoin="bevel"/>
<path d="M112.152 116.43L139.92 127.202V161.953L112.152 151.19V116.43Z" fill="#E9E9FF" stroke="#CCCCCC" stroke-width="0.58364" stroke-linejoin="bevel"/>
<path d="M83.9824 127.36V162.12L112.151 151.19V116.43L83.9824 127.36Z" fill="#353564" stroke="#CCCCCC" stroke-width="0.58364" stroke-linejoin="bevel"/>
<path d="M83.9824 162.121L111.741 172.884L139.918 161.954L112.151 151.19L83.9824 162.121Z" fill="#AFAFDE" stroke="#CCCCCC" stroke-width="0.58364" stroke-linejoin="bevel"/>
<path d="M83.9824 127.36L111.741 138.123L139.918 127.193L112.151 116.43L83.9824 127.36Z" fill="#F7F7F4" stroke="#CCCCCC" stroke-width="0.58364" stroke-linejoin="bevel"/>
<path d="M111.742 138.123V172.883L139.919 161.953V127.192L111.742 138.123Z" fill="#FFD242" stroke="#CCCCCC" stroke-width="0.58364" stroke-linejoin="bevel"/>
<path d="M83.9834 127.36L111.742 138.124V172.884L83.9746 162.111L83.9834 127.36Z" fill="#EFEEEA" stroke="#CCCCCC" stroke-width="0.58364" stroke-linejoin="bevel"/>
<path d="M84.2637 127.232L112.031 138.005V172.756L84.2637 161.993V127.232Z" fill="#E9E9FF" stroke="#CCCCCC" stroke-width="0.58364" stroke-linejoin="bevel"/>
<path d="M56.0938 138.163V172.923L84.262 161.993V127.232L56.0938 138.163Z" fill="#353564" stroke="#CCCCCC" stroke-width="0.58364" stroke-linejoin="bevel"/>
<path d="M56.0938 172.923L83.8521 183.686L112.029 172.755L84.262 161.992L56.0938 172.923Z" fill="#AFAFDE" stroke="#CCCCCC" stroke-width="0.58364" stroke-linejoin="bevel"/>
<path d="M56.0938 138.163L83.8521 148.926L112.029 137.996L84.262 127.232L56.0938 138.163Z" fill="#F7F7F4" stroke="#CCCCCC" stroke-width="0.58364" stroke-linejoin="bevel"/>
<path d="M83.8535 148.926V183.686L112.031 172.755V137.995L83.8535 148.926Z" fill="white" stroke="#CCCCCC" stroke-width="0.58364" stroke-linejoin="bevel"/>
<path d="M56.0947 138.162L83.8531 148.925V183.686L56.0859 172.913L56.0947 138.162Z" fill="#EFEEEA" stroke="#CCCCCC" stroke-width="0.58364" stroke-linejoin="bevel"/>
<path d="M167.922 59.7227L195.689 70.4952V105.246L167.922 94.4828V59.7227Z" fill="#E9E9FF" stroke="#CCCCCC" stroke-width="0.58364" stroke-linejoin="bevel"/>
<path d="M139.752 70.6531V105.413L167.92 94.4828V59.7227L139.752 70.6531Z" fill="#353564" stroke="#CCCCCC" stroke-width="0.58364" stroke-linejoin="bevel"/>
<path d="M139.752 105.414L167.51 116.177L195.687 105.247L167.92 94.4834L139.752 105.414Z" fill="#AFAFDE" stroke="#CCCCCC" stroke-width="0.58364" stroke-linejoin="bevel"/>
<path d="M139.752 70.6531L167.51 81.4164L195.687 70.4859L167.92 59.7227L139.752 70.6531Z" fill="#F7F7F4" stroke="#CCCCCC" stroke-width="0.58364" stroke-linejoin="bevel"/>
<path d="M167.512 81.4158V116.176L195.689 105.245V70.4854L167.512 81.4158Z" fill="#FFD242" stroke="#CCCCCC" stroke-width="0.58364" stroke-linejoin="bevel"/>
<path d="M139.753 70.6523L167.511 81.4156V116.176L139.744 105.403L139.753 70.6523Z" fill="#EFEEEA" stroke="#CCCCCC" stroke-width="0.58364" stroke-linejoin="bevel"/>
<path d="M167.922 24.6172L195.689 35.3898V70.1406L167.922 59.3773V24.6172Z" fill="#E9E9FF" stroke="#CCCCCC" stroke-width="0.58364" stroke-linejoin="bevel"/>
<path d="M139.752 35.5476V70.3078L167.92 59.3773V24.6172L139.752 35.5476Z" fill="#353564" stroke="#CCCCCC" stroke-width="0.58364" stroke-linejoin="bevel"/>
<path d="M139.752 70.3084L167.51 81.0717L195.687 70.1412L167.92 59.3779L139.752 70.3084Z" fill="#AFAFDE" stroke="#CCCCCC" stroke-width="0.58364" stroke-linejoin="bevel"/>
<path d="M139.752 35.5476L167.51 46.3109L195.687 35.3804L167.92 24.6172L139.752 35.5476Z" fill="#FFC91D" stroke="#CCCCCC" stroke-width="0.58364" stroke-linejoin="bevel"/>
<path d="M167.512 46.3103V81.0705L195.689 70.14V35.3799L167.512 46.3103Z" fill="#FFD242" stroke="#CCCCCC" stroke-width="0.58364" stroke-linejoin="bevel"/>
<path d="M139.753 35.5479L167.511 46.3111V81.0713L139.744 70.2987L139.753 35.5479Z" fill="#EFEEEA" stroke="#CCCCCC" stroke-width="0.58364" stroke-linejoin="bevel"/>
<path d="M140.037 70.5215L167.804 81.2941V116.045L140.037 105.282V70.5215Z" fill="#E9E9FF" stroke="#CCCCCC" stroke-width="0.58364" stroke-linejoin="bevel"/>
<path d="M111.867 81.4519V116.212L140.035 105.282V70.5215L111.867 81.4519Z" fill="#353564" stroke="#CCCCCC" stroke-width="0.58364" stroke-linejoin="bevel"/>
<path d="M111.869 116.212L139.628 126.975L167.805 116.045L140.037 105.281L111.869 116.212Z" fill="#AFAFDE" stroke="#CCCCCC" stroke-width="0.58364" stroke-linejoin="bevel"/>
<path d="M111.867 81.4519L139.626 92.2152L167.803 81.2847L140.035 70.5215L111.867 81.4519Z" fill="#F7F7F4" stroke="#CCCCCC" stroke-width="0.58364" stroke-linejoin="bevel"/>
<path d="M139.627 92.2146V126.975L167.804 116.044V81.2842L139.627 92.2146Z" fill="#FFD242" stroke="#CCCCCC" stroke-width="0.58364" stroke-linejoin="bevel"/>
<path d="M111.868 81.4521L139.627 92.2154V126.976L111.859 116.203L111.868 81.4521Z" fill="#EFEEEA" stroke="#CCCCCC" stroke-width="0.58364" stroke-linejoin="bevel"/>
<path d="M140.037 35.4189L167.804 46.1915V80.9423L140.037 70.1791V35.4189Z" fill="#E9E9FF" stroke="#CCCCCC" stroke-width="0.58364" stroke-linejoin="bevel"/>
<path d="M111.867 46.3494V81.1095L140.035 70.1791V35.4189L111.867 46.3494Z" fill="#353564" stroke="#CCCCCC" stroke-width="0.58364" stroke-linejoin="bevel"/>
<path d="M111.869 81.1092L139.628 91.8724L167.805 80.942L140.037 70.1787L111.869 81.1092Z" fill="#AFAFDE" stroke="#CCCCCC" stroke-width="0.58364" stroke-linejoin="bevel"/>
<path d="M111.867 46.3494L139.626 57.1127L167.803 46.1822L140.035 35.4189L111.867 46.3494Z" fill="#F7F7F4" stroke="#CCCCCC" stroke-width="0.58364" stroke-linejoin="bevel"/>
<path d="M139.627 57.1121V91.8722L167.804 80.9418V46.1816L139.627 57.1121Z" fill="#3775A9" stroke="#CCCCCC" stroke-width="0.58364" stroke-linejoin="bevel"/>
<path d="M111.868 46.3486L139.627 57.1119V91.872L111.859 81.0994L111.868 46.3486Z" fill="#EFEEEA" stroke="#CCCCCC" stroke-width="0.58364" stroke-linejoin="bevel"/>
<path d="M140.037 0.3125L167.804 11.0851V45.8359L140.037 35.0726V0.3125Z" fill="#E9E9FF" stroke="#CCCCCC" stroke-width="0.58364" stroke-linejoin="bevel"/>
<path d="M111.867 11.2429V46.0031L140.035 35.0726V0.3125L111.867 11.2429Z" fill="#353564" stroke="#CCCCCC" stroke-width="0.58364" stroke-linejoin="bevel"/>
<path d="M111.869 46.0027L139.628 56.766L167.805 45.8355L140.037 35.0723L111.869 46.0027Z" fill="#AFAFDE" stroke="#CCCCCC" stroke-width="0.58364" stroke-linejoin="bevel"/>
<path d="M111.867 11.2429L139.626 22.0062L167.803 11.0758L140.035 0.3125L111.867 11.2429Z" fill="#2F6491" stroke="#CCCCCC" stroke-width="0.58364" stroke-linejoin="bevel"/>
<path d="M139.627 22.0057V56.7658L167.804 45.8353V11.0752L139.627 22.0057Z" fill="#3775A9" stroke="#CCCCCC" stroke-width="0.58364" stroke-linejoin="bevel"/>
<path d="M111.868 11.2422L139.627 22.0055V56.7656L111.859 45.993L111.868 11.2422Z" fill="#EFEEEA" stroke="#CCCCCC" stroke-width="0.58364" stroke-linejoin="bevel"/>
<path d="M112.152 81.3242L139.92 92.0968V126.848L112.152 116.084V81.3242Z" fill="#E9E9FF" stroke="#CCCCCC" stroke-width="0.58364" stroke-linejoin="bevel"/>
<path d="M83.9824 92.2546V127.015L112.151 116.084V81.3242L83.9824 92.2546Z" fill="#353564" stroke="#CCCCCC" stroke-width="0.58364" stroke-linejoin="bevel"/>
<path d="M83.9824 127.014L111.741 137.778L139.918 126.847L112.151 116.084L83.9824 127.014Z" fill="#AFAFDE" stroke="#CCCCCC" stroke-width="0.58364" stroke-linejoin="bevel"/>
<path d="M83.9824 92.2547L111.741 103.018L139.918 92.0875L112.151 81.3242L83.9824 92.2547Z" fill="#F7F7F4" stroke="#CCCCCC" stroke-width="0.58364" stroke-linejoin="bevel"/>
<path d="M111.742 103.016V137.777L139.919 126.846V92.0859L111.742 103.016Z" fill="#FFD242" stroke="#CCCCCC" stroke-width="0.58364" stroke-linejoin="bevel"/>
<path d="M83.9834 92.2539L111.742 103.017V137.777L83.9746 127.005L83.9834 92.2539Z" fill="#EFEEEA" stroke="#CCCCCC" stroke-width="0.58364" stroke-linejoin="bevel"/>
<path d="M112.152 46.2217L139.92 56.9943V91.7451L112.152 80.9818V46.2217Z" fill="#E9E9FF" stroke="#CCCCCC" stroke-width="0.58364" stroke-linejoin="bevel"/>
<path d="M83.9824 57.1521V91.9123L112.151 80.9818V46.2217L83.9824 57.1521Z" fill="#353564" stroke="#CCCCCC" stroke-width="0.58364" stroke-linejoin="bevel"/>
<path d="M83.9824 91.9129L111.741 102.676L139.918 91.7457L112.151 80.9824L83.9824 91.9129Z" fill="#AFAFDE" stroke="#CCCCCC" stroke-width="0.58364" stroke-linejoin="bevel"/>
<path d="M83.9824 57.1521L111.741 67.9154L139.918 56.9849L112.151 46.2217L83.9824 57.1521Z" fill="#F7F7F4" stroke="#CCCCCC" stroke-width="0.58364" stroke-linejoin="bevel"/>
<path d="M111.742 67.9148V102.675L139.919 91.7445V56.9844L111.742 67.9148Z" fill="#3775A9" stroke="#CCCCCC" stroke-width="0.58364" stroke-linejoin="bevel"/>
<path d="M83.9834 57.1514L111.742 67.9147V102.675L83.9746 91.9022L83.9834 57.1514Z" fill="#EFEEEA" stroke="#CCCCCC" stroke-width="0.58364" stroke-linejoin="bevel"/>
<path d="M84.2637 92.126L112.031 102.899V137.649L84.2637 126.886V92.126Z" fill="#E9E9FF" stroke="#CCCCCC" stroke-width="0.58364" stroke-linejoin="bevel"/>
<path d="M56.0938 103.056V137.817L84.262 126.886V92.126L56.0938 103.056Z" fill="#353564" stroke="#CCCCCC" stroke-width="0.58364" stroke-linejoin="bevel"/>
<path d="M56.0938 137.817L83.8521 148.58L112.029 137.65L84.262 126.887L56.0938 137.817Z" fill="#AFAFDE" stroke="#CCCCCC" stroke-width="0.58364" stroke-linejoin="bevel"/>
<path d="M56.0938 103.056L83.8521 113.82L112.029 102.889L84.262 92.126L56.0938 103.056Z" fill="#F7F7F4" stroke="#CCCCCC" stroke-width="0.58364" stroke-linejoin="bevel"/>
<path d="M83.8535 113.819V148.579L112.031 137.649V102.889L83.8535 113.819Z" fill="#3775A9" stroke="#CCCCCC" stroke-width="0.58364" stroke-linejoin="bevel"/>
<path d="M56.0947 103.056L83.8531 113.819V148.579L56.0859 137.806L56.0947 103.056Z" fill="#2F6491" stroke="#CCCCCC" stroke-width="0.58364" stroke-linejoin="bevel"/>
<path d="M84.2637 57.0195L112.031 67.7921V102.543L84.2637 91.7797V57.0195Z" fill="#E9E9FF" stroke="#CCCCCC" stroke-width="0.58364" stroke-linejoin="bevel"/>
<path d="M56.0938 67.95V102.71L84.262 91.7797V57.0195L56.0938 67.95Z" fill="#353564" stroke="#CCCCCC" stroke-width="0.58364" stroke-linejoin="bevel"/>
<path d="M56.0938 102.711L83.8521 113.474L112.029 102.544L84.262 91.7803L56.0938 102.711Z" fill="#AFAFDE" stroke="#CCCCCC" stroke-width="0.58364" stroke-linejoin="bevel"/>
<path d="M56.0938 67.95L83.8521 78.7133L112.029 67.7828L84.262 57.0195L56.0938 67.95Z" fill="#2F6491" stroke="#CCCCCC" stroke-width="0.58364" stroke-linejoin="bevel"/>
<path d="M83.8535 78.7127V113.473L112.031 102.542V67.7822L83.8535 78.7127Z" fill="#3775A9" stroke="#CCCCCC" stroke-width="0.58364" stroke-linejoin="bevel"/>
<path d="M56.0947 67.9492L83.8531 78.7125V113.473L56.0859 102.7L56.0947 67.9492Z" fill="#2F6491" stroke="#CCCCCC" stroke-width="0.58364" stroke-linejoin="bevel"/>
<path d="M112.139 11.1113L139.906 21.8839V56.6347L112.139 45.8714V11.1113Z" fill="#E9E9FF" stroke="#CCCCCC" stroke-width="0.583639" stroke-linejoin="bevel"/>
<path d="M83.9707 22.0417V56.8019L112.139 45.8714V11.1113L83.9707 22.0417Z" fill="#353564" stroke="#CCCCCC" stroke-width="0.583639" stroke-linejoin="bevel"/>
<path d="M83.9707 56.8035L111.729 67.5667L139.906 56.6363L112.139 45.873L83.9707 56.8035Z" fill="#AFAFDE" stroke="#CCCCCC" stroke-width="0.583639" stroke-linejoin="bevel"/>
<path d="M83.9707 22.0417L111.729 32.805L139.906 21.8746L112.139 11.1113L83.9707 22.0417Z" fill="#2F6491" stroke="#CCCCCC" stroke-width="0.583639" stroke-linejoin="bevel"/>
<path d="M111.73 32.8064V67.5665L139.907 56.6361V21.876L111.73 32.8064Z" fill="#3775A9" stroke="#CCCCCC" stroke-width="0.583639" stroke-linejoin="bevel"/>
<path d="M83.9717 22.041L111.73 32.8043V67.5644L83.9629 56.7918L83.9717 22.041Z" fill="#2F6491" stroke="#CCCCCC" stroke-width="0.583639" stroke-linejoin="bevel"/>
</g>
<defs>
<clipPath id="clip0_1034_850">
<rect width="196" height="184" fill="white"/>
</clipPath>
</defs>
</svg>
